<svg width="19" height="24" viewBox="0 0 19 24" fill="none" xmlns="http://www.w3.org/2000/svg">
<g clip-path="url(#clip0_126_645)">
<path d="M13.0841 3.12799H5.23633C5.26809 2.431 5.70561 2.0376 6.43425 2.0376H11.8862C12.6148 2.0376 13.0524 2.431 13.0841 3.12799Z" fill="white" fill-opacity="0.85"/>
<path d="M14.8261 5.56142C14.5522 5.51787 14.2615 5.49627 13.956 5.49627H4.36398C4.05854 5.49627 3.76803 5.51773 3.49414 5.56106C3.587 4.74287 4.14076 4.28662 5.04548 4.28662H13.2831C14.1879 4.28662 14.7347 4.743 14.8261 5.56142Z" fill="white" fill-opacity="0.85"/>
<path d="M4.36382 21.8094H13.9559C15.7363 21.8094 16.6308 20.9235 16.6308 19.1687V9.50842C16.6308 7.75361 15.7363 6.86768 13.9559 6.86768H4.36382C2.58343 6.86768 1.68896 7.7451 1.68896 9.50842V19.1687C1.68896 20.9235 2.58343 21.8094 4.36382 21.8094ZM4.38938 20.4379C3.53752 20.4379 3.06047 19.9779 3.06047 19.092V9.57663C3.06047 8.69919 3.53752 8.23918 4.38938 8.23918H13.9388C14.7737 8.23918 15.2592 8.69919 15.2592 9.57663V19.092C15.2592 19.9779 14.7737 20.4379 13.9388 20.4379H4.38938Z" fill="white" fill-opacity="0.85"/>
</g>
<defs>
<clipPath id="clip0_126_645">
<rect width="18" height="22.5319" fill="white" transform="translate(0.317383 0.64917)"/>
</clipPath>
</defs>
</svg>
