<svg width="24" height="23" viewBox="0 0 24 23" fill="none" xmlns="http://www.w3.org/2000/svg">
<g clip-path="url(#clip0_103_2704)">
<path d="M1.57227 19.3847C1.57227 20.4003 2.10938 20.9276 3.08594 20.9276H19.9414C20.9082 20.9276 21.4551 20.4003 21.4551 19.3847V14.8241H15.2637C15.0293 16.6405 13.4961 17.9979 11.5137 17.9979C9.53125 17.9979 7.99805 16.6405 7.76367 14.8241H9.33204C9.58119 15.7392 10.3827 16.5429 11.5137 16.5429C12.6526 16.5429 13.4556 15.7392 13.705 14.8241H19.9609C21.6309 14.8241 22.6145 14.1571 22.9218 12.8913C23.011 13.2234 23.0273 13.6133 23.0273 14.0819V19.4726C23.0273 21.3573 22.0117 22.3632 19.9609 22.3632H3.06641C1.02539 22.3632 0 21.3573 0 19.4726V14.0819C0 13.6124 0.0163541 13.222 0.105979 12.8896C0.414908 14.1565 1.40361 14.8241 3.06641 14.8241H1.57227V19.3847Z" fill="white" fill-opacity="0.85"/>
<path d="M3.06641 14.8242H19.9609C22.0117 14.8242 23.0273 13.8184 23.0273 11.9336V6.54297C23.0273 5.6543 22.9688 5.05859 22.4707 4.58008L19.0137 1.30859C17.9492 0.322266 17.1875 0 15.7422 0H7.28516C5.84961 0 5.07812 0.322266 4.02344 1.30859L0.556641 4.58008C0.0585938 5.05859 0 5.6543 0 6.54297V11.9336C0 13.8184 1.02539 14.8242 3.06641 14.8242ZM11.5137 9.00391C10.1367 9.00391 9.24805 7.8125 9.24805 6.67969V6.64062C9.24805 6.24023 9.00391 5.84961 8.49609 5.84961H1.91406C1.64062 5.84961 1.5625 5.5957 1.76758 5.40039L5.22461 2.13867C5.82031 1.58203 6.21094 1.37695 7.13867 1.37695H15.8887C16.8262 1.37695 17.207 1.58203 17.8027 2.13867L21.2598 5.40039C21.4648 5.5957 21.3867 5.84961 21.1133 5.84961H14.5312C14.0234 5.84961 13.7891 6.24023 13.7891 6.64062V6.67969C13.7891 7.8125 12.9004 9.00391 11.5137 9.00391ZM11.5137 10.459C13.4961 10.459 15.0293 9.10156 15.2637 7.28516H21.4551V11.8457C21.4551 12.8613 20.9082 13.3887 19.9414 13.3887H3.08594C2.10938 13.3887 1.57227 12.8613 1.57227 11.8457V7.28516H7.76367C7.99805 9.10156 9.53125 10.459 11.5137 10.459Z" fill="white" fill-opacity="0.85"/>
</g>
<defs>
<clipPath id="clip0_103_2704">
<rect width="23.3887" height="22.373" fill="white"/>
</clipPath>
</defs>
</svg>
