<svg width="20" height="19" viewBox="0 0 20 19" fill="none" xmlns="http://www.w3.org/2000/svg">
<g clip-path="url(#clip0_127_672)">
<path d="M15.3027 18.7598H17.4609C18.5254 18.7598 19.1504 18.1348 19.1504 17.0312V14.9512C19.1504 13.8477 18.5254 13.2227 17.4609 13.2227H15.3027C14.2383 13.2227 13.6133 13.8477 13.6133 14.9512V17.0312C13.6133 18.1348 14.2383 18.7598 15.3027 18.7598ZM15.4883 17.4121C15.1367 17.4121 14.9512 17.2266 14.9512 16.8652V15.1172C14.9512 14.7461 15.1367 14.5605 15.4883 14.5605H17.2754C17.6172 14.5605 17.8027 14.7461 17.8027 15.1172V16.8652C17.8027 17.2266 17.6172 17.4121 17.2754 17.4121H15.4883Z" fill="white" fill-opacity="0.85"/>
<path d="M8.48633 18.7598H10.6543C11.7188 18.7598 12.334 18.1348 12.334 17.0312V14.9512C12.334 13.8477 11.7188 13.2227 10.6543 13.2227H8.48633C7.42188 13.2227 6.80664 13.8477 6.80664 14.9512V17.0312C6.80664 18.1348 7.42188 18.7598 8.48633 18.7598ZM8.67188 17.4121C8.32031 17.4121 8.14453 17.2266 8.14453 16.8652V15.1172C8.14453 14.7461 8.32031 14.5605 8.67188 14.5605H10.4688C10.8105 14.5605 10.9961 14.7461 10.9961 15.1172V16.8652C10.9961 17.2266 10.8105 17.4121 10.4688 17.4121H8.67188Z" fill="white" fill-opacity="0.85"/>
<path d="M1.68945 18.7598H3.84766C4.91211 18.7598 5.53711 18.1348 5.53711 17.0312V14.9512C5.53711 13.8477 4.91211 13.2227 3.84766 13.2227H1.68945C0.625 13.2227 0 13.8477 0 14.9512V17.0312C0 18.1348 0.625 18.7598 1.68945 18.7598ZM1.875 17.4121C1.52344 17.4121 1.34766 17.2266 1.34766 16.8652V15.1172C1.34766 14.7461 1.52344 14.5605 1.875 14.5605H3.66211C4.00391 14.5605 4.19922 14.7461 4.19922 15.1172V16.8652C4.19922 17.2266 4.00391 17.4121 3.66211 17.4121H1.875Z" fill="white" fill-opacity="0.85"/>
<path d="M15.3027 12.1484H17.4609C18.5254 12.1484 19.1504 11.5332 19.1504 10.4297V8.33984C19.1504 7.23633 18.5254 6.61133 17.4609 6.61133H15.3027C14.2383 6.61133 13.6133 7.23633 13.6133 8.33984V10.4297C13.6133 11.5332 14.2383 12.1484 15.3027 12.1484ZM15.4883 10.8105C15.1367 10.8105 14.9512 10.625 14.9512 10.2539V8.49609C14.9512 8.13477 15.1367 7.94922 15.4883 7.94922H17.2754C17.6172 7.94922 17.8027 8.13477 17.8027 8.49609V10.2539C17.8027 10.625 17.6172 10.8105 17.2754 10.8105H15.4883Z" fill="white" fill-opacity="0.85"/>
<path d="M8.48633 12.1484H10.6543C11.7188 12.1484 12.334 11.5332 12.334 10.4297V8.33984C12.334 7.23633 11.7188 6.61133 10.6543 6.61133H8.48633C7.42188 6.61133 6.80664 7.23633 6.80664 8.33984V10.4297C6.80664 11.5332 7.42188 12.1484 8.48633 12.1484ZM8.67188 10.8105C8.32031 10.8105 8.14453 10.625 8.14453 10.2539V8.49609C8.14453 8.13477 8.32031 7.94922 8.67188 7.94922H10.4688C10.8105 7.94922 10.9961 8.13477 10.9961 8.49609V10.2539C10.9961 10.625 10.8105 10.8105 10.4688 10.8105H8.67188Z" fill="white" fill-opacity="0.85"/>
<path d="M1.68945 12.1484H3.84766C4.91211 12.1484 5.53711 11.5332 5.53711 10.4297V8.33984C5.53711 7.23633 4.91211 6.61133 3.84766 6.61133H1.68945C0.625 6.61133 0 7.23633 0 8.33984V10.4297C0 11.5332 0.625 12.1484 1.68945 12.1484ZM1.875 10.8105C1.52344 10.8105 1.34766 10.625 1.34766 10.2539V8.49609C1.34766 8.13477 1.52344 7.94922 1.875 7.94922H3.66211C4.00391 7.94922 4.19922 8.13477 4.19922 8.49609V10.2539C4.19922 10.625 4.00391 10.8105 3.66211 10.8105H1.875Z" fill="white" fill-opacity="0.85"/>
<path d="M15.3027 5.53711H17.4609C18.5254 5.53711 19.1504 4.91211 19.1504 3.80859V1.72852C19.1504 0.625 18.5254 0 17.4609 0H15.3027C14.2383 0 13.6133 0.625 13.6133 1.72852V3.80859C13.6133 4.91211 14.2383 5.53711 15.3027 5.53711ZM15.4883 4.19922C15.1367 4.19922 14.9512 4.01367 14.9512 3.64258V1.89453C14.9512 1.5332 15.1367 1.34766 15.4883 1.34766H17.2754C17.6172 1.34766 17.8027 1.5332 17.8027 1.89453V3.64258C17.8027 4.01367 17.6172 4.19922 17.2754 4.19922H15.4883Z" fill="white" fill-opacity="0.85"/>
<path d="M8.48633 5.53711H10.6543C11.7188 5.53711 12.334 4.91211 12.334 3.80859V1.72852C12.334 0.625 11.7188 0 10.6543 0H8.48633C7.42188 0 6.80664 0.625 6.80664 1.72852V3.80859C6.80664 4.91211 7.42188 5.53711 8.48633 5.53711ZM8.67188 4.19922C8.32031 4.19922 8.14453 4.01367 8.14453 3.64258V1.89453C8.14453 1.5332 8.32031 1.34766 8.67188 1.34766H10.4688C10.8105 1.34766 10.9961 1.5332 10.9961 1.89453V3.64258C10.9961 4.01367 10.8105 4.19922 10.4688 4.19922H8.67188Z" fill="white" fill-opacity="0.85"/>
<path d="M1.68945 5.53711H3.84766C4.91211 5.53711 5.53711 4.91211 5.53711 3.80859V1.72852C5.53711 0.625 4.91211 0 3.84766 0H1.68945C0.625 0 0 0.625 0 1.72852V3.80859C0 4.91211 0.625 5.53711 1.68945 5.53711ZM1.875 4.19922C1.52344 4.19922 1.34766 4.01367 1.34766 3.64258V1.89453C1.34766 1.5332 1.52344 1.34766 1.875 1.34766H3.66211C4.00391 1.34766 4.19922 1.5332 4.19922 1.89453V3.64258C4.19922 4.01367 4.00391 4.19922 3.66211 4.19922H1.875Z" fill="white" fill-opacity="0.85"/>
</g>
<defs>
<clipPath id="clip0_127_672">
<rect width="19.5117" height="18.7988" fill="white"/>
</clipPath>
</defs>
</svg>
