<svg width="19" height="17" viewBox="0 0 19 17" fill="none" xmlns="http://www.w3.org/2000/svg">
<g clip-path="url(#clip0_108_3608)">
<path d="M7.55093 15.3112H11.8561V10.5162C11.8561 10.1747 11.6334 9.95205 11.292 9.95205H8.12248C7.78104 9.95205 7.55093 10.1747 7.55093 10.5162V15.3112ZM1.47917 8.39327C1.68701 8.39327 1.85773 8.28191 2.01361 8.15574L9.44375 1.91325C9.52539 1.84644 9.62184 1.80933 9.70355 1.80933C9.79255 1.80933 9.88164 1.84644 9.96335 1.91325L17.4008 8.15574C17.5493 8.28191 17.72 8.39327 17.9279 8.39327C18.3287 8.39327 18.5662 8.10375 18.5662 7.79944C18.5662 7.62872 18.4994 7.45057 18.3287 7.31696L10.5942 0.82211C10.3121 0.584583 10.0078 0.46582 9.70355 0.46582C9.39921 0.46582 9.09487 0.584583 8.81281 0.82211L1.07835 7.31696C0.915047 7.45057 0.84082 7.62872 0.84082 7.79944C0.84082 8.10375 1.07835 8.39327 1.47917 8.39327ZM14.5357 4.45181L16.3988 6.02541V2.67779C16.3988 2.35119 16.1909 2.14335 15.8643 2.14335H15.0701C14.751 2.14335 14.5357 2.35119 14.5357 2.67779V4.45181ZM4.68577 16.0757H14.7287C15.7827 16.0757 16.3988 15.4745 16.3988 14.4353V6.21098L15.2037 5.40191V14.1384C15.2037 14.6209 14.9439 14.8807 14.4763 14.8807H4.93814C4.46309 14.8807 4.2033 14.6209 4.2033 14.1384V5.40934L3.00824 6.21098V14.4353C3.00824 15.482 3.62433 16.0757 4.68577 16.0757Z" fill="white" fill-opacity="0.85"/>
</g>
<defs>
<clipPath id="clip0_108_3608">
<rect width="18" height="15.6247" fill="white" transform="translate(0.84082 0.46582)"/>
</clipPath>
</defs>
</svg>
