<svg width="31" height="28" viewBox="0 0 31 28" fill="none" xmlns="http://www.w3.org/2000/svg">
<g style="mix-blend-mode:plus-darker">
<path d="M10.9741 21.9897C10.1616 21.9897 9.53955 21.7782 9.10791 21.355C8.67627 20.9318 8.46045 20.3118 8.46045 19.4951V10.7988H9.85693V19.4697C9.85693 20.2568 10.2505 20.6504 11.0376 20.6504H19.9497C20.3263 20.6504 20.6162 20.5509 20.8193 20.3521C21.0267 20.1532 21.1304 19.859 21.1304 19.4697V10.7988H22.5332V19.4951C22.5332 20.3118 22.3174 20.9318 21.8857 21.355C21.4541 21.7782 20.8299 21.9897 20.0132 21.9897H10.9741ZM12.8149 14.7852C12.633 14.7852 12.4849 14.728 12.3706 14.6138C12.2563 14.4995 12.1992 14.3472 12.1992 14.1567V13.9028C12.1992 13.7166 12.2563 13.5664 12.3706 13.4521C12.4849 13.3379 12.633 13.2808 12.8149 13.2808H18.1787C18.3649 13.2808 18.5151 13.3379 18.6294 13.4521C18.7437 13.5664 18.8008 13.7166 18.8008 13.9028V14.1567C18.8008 14.3472 18.7437 14.4995 18.6294 14.6138C18.5151 14.728 18.3649 14.7852 18.1787 14.7852H12.8149ZM8.91113 11.4717C8.39062 11.4717 7.98649 11.3193 7.69873 11.0146C7.41097 10.7057 7.26709 10.2931 7.26709 9.77686V8.56445C7.26709 8.22168 7.3348 7.92334 7.47021 7.66943C7.60563 7.41553 7.79606 7.21875 8.0415 7.0791C8.28695 6.93945 8.57682 6.86963 8.91113 6.86963H22.0889C22.6051 6.86963 23.0072 7.02409 23.2949 7.33301C23.5827 7.6377 23.7266 8.04818 23.7266 8.56445V9.77686C23.7266 10.2931 23.5827 10.7057 23.2949 11.0146C23.0072 11.3193 22.6051 11.4717 22.0889 11.4717H8.91113ZM9.17139 10.1768H21.8286C22.0233 10.1768 22.165 10.1302 22.2539 10.0371C22.3428 9.93978 22.3872 9.79378 22.3872 9.59912V8.73584C22.3872 8.54541 22.3428 8.40365 22.2539 8.31055C22.165 8.21322 22.0233 8.16455 21.8286 8.16455H9.17139C8.97673 8.16455 8.83285 8.21322 8.73975 8.31055C8.65088 8.40365 8.60645 8.54541 8.60645 8.73584V9.59912C8.60645 9.79378 8.65088 9.93978 8.73975 10.0371C8.83285 10.1302 8.97673 10.1768 9.17139 10.1768Z" fill="#4C4C4C"/>
</g>
</svg>
