<svg width="28" height="28" viewBox="0 0 28 28" fill="none" xmlns="http://www.w3.org/2000/svg">
<g style="mix-blend-mode:plus-darker">
<path d="M19.1289 14.417C19.1289 14.5397 19.1056 14.654 19.0591 14.7598C19.0168 14.8613 18.9469 14.9587 18.8496 15.0518L12.4194 21.2661C12.2629 21.4227 12.0703 21.501 11.8418 21.501C11.6852 21.501 11.5456 21.465 11.4229 21.3931C11.3001 21.3211 11.2007 21.2217 11.1245 21.0947C11.0483 20.972 11.0103 20.8324 11.0103 20.6758C11.0103 20.4515 11.0949 20.2547 11.2642 20.0854L17.1548 14.417L11.2642 8.74219C11.0949 8.57292 11.0103 8.37614 11.0103 8.15186C11.0103 7.99951 11.0483 7.86198 11.1245 7.73926C11.2007 7.61654 11.3001 7.51921 11.4229 7.44727C11.5456 7.37109 11.6852 7.33301 11.8418 7.33301C12.0703 7.33301 12.2629 7.4113 12.4194 7.56787L18.8496 13.7822C18.9469 13.8753 19.0168 13.9727 19.0591 14.0742C19.1056 14.1758 19.1289 14.29 19.1289 14.417Z" fill="#C6C6C6"/>
</g>
</svg>
