<svg width="28" height="28" viewBox="0 0 28 28" fill="none" xmlns="http://www.w3.org/2000/svg">
<g style="mix-blend-mode:plus-darker">
<path d="M8.87109 14.417C8.87109 14.29 8.89225 14.1758 8.93457 14.0742C8.98112 13.9727 9.05306 13.8753 9.15039 13.7822L15.5806 7.56787C15.7371 7.4113 15.9297 7.33301 16.1582 7.33301C16.3105 7.33301 16.4481 7.37109 16.5708 7.44727C16.6978 7.51921 16.7972 7.61654 16.8691 7.73926C16.9453 7.86198 16.9834 7.99951 16.9834 8.15186C16.9834 8.37614 16.9009 8.57292 16.7358 8.74219L10.8452 14.417L16.7358 20.0854C16.9009 20.2547 16.9834 20.4515 16.9834 20.6758C16.9834 20.8324 16.9453 20.972 16.8691 21.0947C16.7972 21.2217 16.6978 21.3211 16.5708 21.3931C16.4481 21.465 16.3105 21.501 16.1582 21.501C15.9297 21.501 15.7371 21.4227 15.5806 21.2661L9.15039 15.0518C9.05306 14.9587 8.98112 14.8613 8.93457 14.7598C8.89225 14.654 8.87109 14.5397 8.87109 14.417Z" fill="#4C4C4C"/>
</g>
</svg>
