<svg width="19" height="20" viewBox="0 0 19 20" fill="none" xmlns="http://www.w3.org/2000/svg">
<g clip-path="url(#clip0_126_634)">
<path d="M9.9427 19.0005C10.3966 19.0005 10.7526 18.6444 10.7526 18.1995V11.5962L13.4135 9.1399C14.428 9.27338 15.496 8.85511 16.4304 7.92068L11.5357 3.0171C10.5923 3.95154 10.2008 5.00166 10.3432 6.0251L2.06672 14.9334C1.72854 15.2983 1.67515 15.8056 2.09342 16.2238L0.954294 17.6922C0.847501 17.8347 0.838602 18.0393 0.998792 18.1995L1.25687 18.4665C1.40816 18.6177 1.61285 18.6267 1.77304 18.5021L3.24145 17.354C3.64192 17.7723 4.15809 17.7189 4.51406 17.3807L9.13286 13.109V18.1995C9.13286 18.6444 9.48883 19.0005 9.9427 19.0005ZM2.98336 15.6631L10.8327 7.33331C10.9839 7.5914 11.1619 7.83168 11.3845 8.07196C11.598 8.29445 11.8472 8.49913 12.0786 8.64152L3.80211 16.4819L2.98336 15.6631ZM12.4256 2.11826L17.3292 7.02183C18.8955 5.47333 18.9578 3.48876 17.4538 1.99366C15.9587 0.51636 13.992 0.551957 12.4256 2.11826Z" fill="white" fill-opacity="0.85"/>
</g>
<defs>
<clipPath id="clip0_126_634">
<rect width="18" height="18.7749" fill="white" transform="translate(0.875977 0.913818)"/>
</clipPath>
</defs>
</svg>
