<svg width="29" height="28" viewBox="0 0 29 28" fill="none" xmlns="http://www.w3.org/2000/svg">
<g style="mix-blend-mode:plus-darker">
<path d="M12.0752 20.1743C11.9271 20.1743 11.8065 20.1299 11.7134 20.041C11.6245 19.9521 11.578 19.8358 11.5737 19.6919L11.3135 10.9321C11.3092 10.7882 11.3537 10.6719 11.4468 10.583C11.5399 10.4899 11.6626 10.4434 11.8149 10.4434C11.9588 10.4434 12.0773 10.4878 12.1704 10.5767C12.2635 10.6655 12.3122 10.7798 12.3164 10.9194L12.5767 19.6855C12.5809 19.8294 12.5365 19.9458 12.4434 20.0347C12.3503 20.1278 12.2275 20.1743 12.0752 20.1743ZM14.5063 20.1743C14.354 20.1743 14.2292 20.1278 14.1318 20.0347C14.0387 19.9458 13.9922 19.8315 13.9922 19.6919V10.9258C13.9922 10.7819 14.0387 10.6655 14.1318 10.5767C14.2292 10.4878 14.354 10.4434 14.5063 10.4434C14.6587 10.4434 14.7814 10.4878 14.8745 10.5767C14.9676 10.6655 15.0142 10.7819 15.0142 10.9258V19.6919C15.0142 19.8315 14.9676 19.9458 14.8745 20.0347C14.7814 20.1278 14.6587 20.1743 14.5063 20.1743ZM16.9312 20.1743C16.7746 20.1743 16.6519 20.1299 16.563 20.041C16.4741 19.9521 16.4318 19.8337 16.436 19.6855L16.6899 10.9258C16.6942 10.7819 16.7428 10.6676 16.8359 10.583C16.929 10.4941 17.0496 10.4497 17.1978 10.4497C17.3459 10.4497 17.4644 10.4941 17.5532 10.583C17.6463 10.6719 17.6908 10.7882 17.6865 10.9321L17.4326 19.6982C17.4284 19.8421 17.3797 19.9564 17.2866 20.041C17.1935 20.1299 17.075 20.1743 16.9312 20.1743ZM10.8564 8.19629V6.42529C10.8564 5.82861 11.0363 5.361 11.396 5.02246C11.7599 4.68392 12.2677 4.51465 12.9194 4.51465H16.0742C16.7217 4.51465 17.2274 4.68392 17.5913 5.02246C17.9552 5.361 18.1372 5.82861 18.1372 6.42529V8.19629H16.8169V6.48877C16.8169 6.25602 16.7428 6.07194 16.5947 5.93652C16.4466 5.79688 16.2456 5.72705 15.9917 5.72705H13.002C12.748 5.72705 12.547 5.79688 12.3989 5.93652C12.2508 6.07194 12.1768 6.25602 12.1768 6.48877V8.19629H10.8564ZM7.13672 8.96436C6.96322 8.96436 6.81299 8.90299 6.68604 8.78027C6.56331 8.65755 6.50195 8.50732 6.50195 8.32959C6.50195 8.15609 6.56331 8.00798 6.68604 7.88525C6.81299 7.7583 6.96322 7.69482 7.13672 7.69482H21.8633C22.041 7.69482 22.1912 7.75618 22.314 7.87891C22.4367 8.00163 22.498 8.15186 22.498 8.32959C22.498 8.50732 22.4367 8.65755 22.314 8.78027C22.1955 8.90299 22.0452 8.96436 21.8633 8.96436H7.13672ZM10.7676 22.8657C10.3656 22.8657 10.0143 22.7874 9.71387 22.6309C9.41764 22.4743 9.18278 22.2521 9.00928 21.9644C8.84001 21.6766 8.74691 21.3359 8.72998 20.9424L8.13965 8.81836H9.44727L10.0312 20.7329C10.0439 20.9868 10.1307 21.1942 10.2915 21.355C10.4565 21.5158 10.6576 21.5962 10.8945 21.5962H18.0991C18.3446 21.5962 18.5477 21.5158 18.7085 21.355C18.8693 21.1942 18.9561 20.9868 18.9688 20.7329L19.5273 8.81201H20.8667L20.2827 20.936C20.2616 21.3296 20.1642 21.6702 19.9907 21.958C19.8172 22.25 19.5802 22.4743 19.2798 22.6309C18.9836 22.7874 18.6408 22.8657 18.2515 22.8657H10.7676Z" fill="#4C4C4C"/>
</g>
</svg>
