<svg width="13" height="12" viewBox="0 0 13 12" fill="none" xmlns="http://www.w3.org/2000/svg">
<g clip-path="url(#clip0_167_2853)">
<path d="M2.01084 11.8025H10.7586C12.0971 11.8025 12.7631 11.1365 12.7631 9.81726V1.99804C12.7631 0.67883 12.0971 0.0128174 10.7586 0.0128174H2.01084C0.672414 0.0128174 0 0.672424 0 1.99804V9.81726C0 11.1429 0.672414 11.8025 2.01084 11.8025ZM1.91478 10.7715C1.34483 10.7715 1.03104 10.4705 1.03104 9.8749V3.83597C1.03104 3.24681 1.34483 2.93942 1.91478 2.93942H10.8419C11.4118 2.93942 11.732 3.24681 11.732 3.83597V9.8749C11.732 10.4705 11.4118 10.7715 10.8419 10.7715H1.91478ZM5.13596 5.23844H5.5138C5.73794 5.23844 5.80838 5.1744 5.80838 4.95026V4.57243C5.80838 4.34829 5.73794 4.27785 5.5138 4.27785H5.13596C4.91182 4.27785 4.83498 4.34829 4.83498 4.57243V4.95026C4.83498 5.1744 4.91182 5.23844 5.13596 5.23844ZM7.26206 5.23844H7.63991C7.86406 5.23844 7.94091 5.1744 7.94091 4.95026V4.57243C7.94091 4.34829 7.86406 4.27785 7.63991 4.27785H7.26206C7.03792 4.27785 6.96107 4.34829 6.96107 4.57243V4.95026C6.96107 5.1744 7.03792 5.23844 7.26206 5.23844ZM9.38818 5.23844H9.76603C9.99017 5.23844 10.067 5.1744 10.067 4.95026V4.57243C10.067 4.34829 9.99017 4.27785 9.76603 4.27785H9.38818C9.16404 4.27785 9.09361 4.34829 9.09361 4.57243V4.95026C9.09361 5.1744 9.16404 5.23844 9.38818 5.23844ZM3.00985 7.3325H3.38128C3.61182 7.3325 3.68227 7.2685 3.68227 7.04436V6.66651C3.68227 6.44238 3.61182 6.37834 3.38128 6.37834H3.00985C2.77931 6.37834 2.70887 6.44238 2.70887 6.66651V7.04436C2.70887 7.2685 2.77931 7.3325 3.00985 7.3325ZM5.13596 7.3325H5.5138C5.73794 7.3325 5.80838 7.2685 5.80838 7.04436V6.66651C5.80838 6.44238 5.73794 6.37834 5.5138 6.37834H5.13596C4.91182 6.37834 4.83498 6.44238 4.83498 6.66651V7.04436C4.83498 7.2685 4.91182 7.3325 5.13596 7.3325ZM7.26206 7.3325H7.63991C7.86406 7.3325 7.94091 7.2685 7.94091 7.04436V6.66651C7.94091 6.44238 7.86406 6.37834 7.63991 6.37834H7.26206C7.03792 6.37834 6.96107 6.44238 6.96107 6.66651V7.04436C6.96107 7.2685 7.03792 7.3325 7.26206 7.3325ZM9.38818 7.3325H9.76603C9.99017 7.3325 10.067 7.2685 10.067 7.04436V6.66651C10.067 6.44238 9.99017 6.37834 9.76603 6.37834H9.38818C9.16404 6.37834 9.09361 6.44238 9.09361 6.66651V7.04436C9.09361 7.2685 9.16404 7.3325 9.38818 7.3325ZM3.00985 9.43305H3.38128C3.61182 9.43305 3.68227 9.36255 3.68227 9.13841V8.76063C3.68227 8.53649 3.61182 8.47242 3.38128 8.47242H3.00985C2.77931 8.47242 2.70887 8.53649 2.70887 8.76063V9.13841C2.70887 9.36255 2.77931 9.43305 3.00985 9.43305ZM5.13596 9.43305H5.5138C5.73794 9.43305 5.80838 9.36255 5.80838 9.13841V8.76063C5.80838 8.53649 5.73794 8.47242 5.5138 8.47242H5.13596C4.91182 8.47242 4.83498 8.53649 4.83498 8.76063V9.13841C4.83498 9.36255 4.91182 9.43305 5.13596 9.43305ZM7.26206 9.43305H7.63991C7.86406 9.43305 7.94091 9.36255 7.94091 9.13841V8.76063C7.94091 8.53649 7.86406 8.47242 7.63991 8.47242H7.26206C7.03792 8.47242 6.96107 8.53649 6.96107 8.76063V9.13841C6.96107 9.36255 7.03792 9.43305 7.26206 9.43305Z" fill="#808080"/>
</g>
<defs>
<clipPath id="clip0_167_2853">
<rect width="13" height="11.8024" fill="white"/>
</clipPath>
</defs>
</svg>
