<svg width="24" height="20" viewBox="0 0 24 20" fill="none" xmlns="http://www.w3.org/2000/svg">
<mask id="path-1-inside-1_10_138" fill="white">
<path d="M0 4C0 1.79086 1.79086 0 4 0H20C22.2091 0 24 1.79086 24 4V16C24 18.2091 22.2091 20 20 20H4C1.79086 20 0 18.2091 0 16V4Z"/>
</mask>
<path d="M0 4C0 1.79086 1.79086 0 4 0H20C22.2091 0 24 1.79086 24 4V16C24 18.2091 22.2091 20 20 20H4C1.79086 20 0 18.2091 0 16V4Z" fill="white"/>
<path d="M-1 1C-1 -1.76142 1.23858 -4 4 -4H20C22.7614 -4 25 -1.76142 25 1L23 4C23 4 21.6569 4 20 4H4C2.34315 4 1 4 1 4L-1 1ZM25 16C25 18.7614 22.7614 21 20 21H4C1.23858 21 -1 18.7614 -1 16H1C1 17.6569 2.34315 19 4 19H20C21.6569 19 23 17.6569 23 16H25ZM4 21C1.23858 21 -1 18.7614 -1 16V1C-1 -1.76142 1.23858 -4 4 -4V4C2.34315 4 1 4 1 4V16C1 17.6569 2.34315 19 4 19V21ZM20 -4C22.7614 -4 25 -1.76142 25 1V16C25 18.7614 22.7614 21 20 21V19C21.6569 19 23 17.6569 23 16V4C23 4 21.6569 4 20 4V-4Z" fill="black" mask="url(#path-1-inside-1_10_138)"/>
</svg>
