<svg width="21" height="14" viewBox="0 0 21 14" fill="none" xmlns="http://www.w3.org/2000/svg">
<g clip-path="url(#clip0_133_782)">
<path d="M4.94277 13.3217H15.7702C18.5727 13.3217 20.7432 11.2012 20.7432 8.49012C20.7432 5.75416 18.5228 3.69178 15.5041 3.69178C14.3981 1.49635 12.3689 0.157471 9.89916 0.157471C6.6725 0.157471 3.94485 2.66059 3.65379 5.97869C1.99058 6.4527 0.86792 7.84979 0.86792 9.62112C0.86792 11.6668 2.35649 13.3217 4.94277 13.3217ZM4.92614 11.9828C3.22136 11.9828 2.2068 11.0597 2.2068 9.66267C2.2068 8.46517 2.97188 7.6003 4.31907 7.24272C4.78476 7.12629 4.9594 6.91008 4.99266 6.42775C5.19225 3.60861 7.30452 1.49635 9.89916 1.49635C11.9033 1.49635 13.4501 2.6107 14.3814 4.52338C14.581 4.93087 14.8222 5.07223 15.3295 5.07223C17.9324 5.07223 19.396 6.64397 19.396 8.52339C19.396 10.461 17.8492 11.9828 15.8617 11.9828H4.92614Z" fill="white" fill-opacity="0.85"/>
</g>
<defs>
<clipPath id="clip0_133_782">
<rect width="20" height="13.2807" fill="white" transform="translate(0.743164 0.157471)"/>
</clipPath>
</defs>
</svg>
