<svg width="190" height="28" viewBox="0 0 190 28" fill="none" xmlns="http://www.w3.org/2000/svg">
<mask id="path-1-inside-1_99_1869" fill="white">
<path d="M0 0H190V28H0V0Z"/>
</mask>
<path d="M190 28V27H0V28V29H190V28Z" fill="black" fill-opacity="0.05" mask="url(#path-1-inside-1_99_1869)"/>
<mask id="path-3-inside-2_99_1869" fill="white">
<path d="M0 4H190V23H0V4Z"/>
</mask>
<path d="M0 23H1V4H0H-1V23H0Z" fill="black" fill-opacity="0.1" mask="url(#path-3-inside-2_99_1869)"/>
<path d="M8.93994 17V9.24951H11.9907C12.7606 9.24951 13.4159 9.3999 13.9565 9.70068C14.4972 9.99788 14.9108 10.4312 15.1973 11.0005C15.4837 11.5698 15.627 12.2591 15.627 13.0684V13.0791C15.627 13.9134 15.4837 14.6224 15.1973 15.2061C14.9144 15.7897 14.5026 16.2355 13.9619 16.5435C13.4212 16.8478 12.7642 17 11.9907 17H8.93994ZM10.562 15.6626H11.7329C12.2127 15.6626 12.6191 15.5641 12.9521 15.3672C13.2852 15.1702 13.5376 14.882 13.7095 14.5024C13.8849 14.1193 13.9727 13.6538 13.9727 13.106V13.0952C13.9727 12.5617 13.8831 12.1087 13.7041 11.7363C13.5286 11.3604 13.2726 11.0757 12.936 10.8823C12.603 10.6854 12.202 10.5869 11.7329 10.5869H10.562V15.6626ZM18.5703 17.0913C18.1979 17.0913 17.8649 17.0197 17.5713 16.8765C17.2812 16.7297 17.0539 16.5238 16.8892 16.2588C16.7244 15.9902 16.6421 15.6769 16.6421 15.3188V15.3081C16.6421 14.9536 16.7298 14.6493 16.9053 14.395C17.0843 14.1408 17.3439 13.9421 17.6841 13.7988C18.0278 13.652 18.445 13.5643 18.9355 13.5356L21.1377 13.4014V14.3574L19.1719 14.4863C18.8353 14.5042 18.5846 14.5758 18.4199 14.7012C18.2552 14.8265 18.1729 14.9966 18.1729 15.2114V15.2222C18.1729 15.4478 18.2588 15.625 18.4307 15.7539C18.6025 15.8828 18.8245 15.9473 19.0967 15.9473C19.3402 15.9473 19.5568 15.8989 19.7466 15.8022C19.9364 15.7056 20.0868 15.5749 20.1978 15.4102C20.3088 15.2419 20.3643 15.0539 20.3643 14.8462V12.9609C20.3643 12.7031 20.2783 12.5062 20.1064 12.3701C19.9382 12.2305 19.6929 12.1606 19.3706 12.1606C19.0877 12.1606 18.8568 12.209 18.6777 12.3057C18.5023 12.3988 18.3841 12.533 18.3232 12.7085L18.3125 12.73H16.8623L16.8677 12.6816C16.9106 12.3343 17.0413 12.0317 17.2598 11.7739C17.4818 11.5161 17.779 11.3156 18.1514 11.1724C18.5273 11.0291 18.9624 10.9575 19.4565 10.9575C19.9793 10.9575 20.4233 11.0381 20.7886 11.1992C21.1538 11.3568 21.4313 11.5859 21.6211 11.8867C21.8145 12.1839 21.9111 12.542 21.9111 12.9609V17H20.3643V16.2158H20.2676C20.1673 16.3984 20.033 16.556 19.8647 16.6885C19.7 16.8174 19.5067 16.9176 19.2847 16.9893C19.0662 17.0573 18.8281 17.0913 18.5703 17.0913ZM25.9019 17.0215C25.1857 17.0215 24.6701 16.8962 24.355 16.6455C24.0399 16.3913 23.8823 15.9777 23.8823 15.4048V12.2681H22.9692V11.0864H23.8823V9.67383H25.4668V11.0864H26.686V12.2681H25.4668V15.0449C25.4668 15.3099 25.5259 15.505 25.644 15.6304C25.7658 15.7521 25.9591 15.813 26.2241 15.813C26.3244 15.813 26.4067 15.8112 26.4712 15.8076C26.5392 15.8005 26.6108 15.7933 26.686 15.7861V16.9517C26.5894 16.9696 26.473 16.9857 26.3369 17C26.2008 17.0143 26.0558 17.0215 25.9019 17.0215ZM30.5479 17.1235C29.9499 17.1235 29.4342 17 29.001 16.7529C28.5713 16.5023 28.2401 16.1478 28.0073 15.6895C27.7746 15.2311 27.6582 14.6851 27.6582 14.0513V14.0459C27.6582 13.4193 27.7728 12.875 28.002 12.4131C28.2347 11.9512 28.5623 11.5931 28.9849 11.3389C29.411 11.0846 29.9105 10.9575 30.4834 10.9575C31.0599 10.9575 31.5576 11.0811 31.9766 11.3281C32.3955 11.5752 32.7178 11.9207 32.9434 12.3647C33.1689 12.8088 33.2817 13.3298 33.2817 13.9277V14.4165H28.4424V13.4336H32.5298L31.7939 14.3628V13.7344C31.7939 13.3799 31.7384 13.0845 31.6274 12.8481C31.52 12.6118 31.3696 12.4346 31.1763 12.3164C30.9865 12.1947 30.7645 12.1338 30.5103 12.1338C30.2596 12.1338 30.0358 12.1965 29.8389 12.3218C29.6455 12.4435 29.4915 12.6243 29.377 12.8643C29.266 13.1006 29.2104 13.3906 29.2104 13.7344V14.3682C29.2104 14.7012 29.266 14.9858 29.377 15.2222C29.488 15.4585 29.6455 15.6393 29.8496 15.7646C30.0537 15.89 30.2972 15.9526 30.5801 15.9526C30.8092 15.9526 31.0044 15.9186 31.1655 15.8506C31.3267 15.7826 31.4556 15.7038 31.5522 15.6143C31.6525 15.5212 31.7205 15.437 31.7563 15.3618L31.7725 15.3296H33.2334L33.2227 15.3833C33.1761 15.5695 33.092 15.7646 32.9702 15.9688C32.8485 16.1693 32.6802 16.3573 32.4653 16.5327C32.2541 16.7082 31.9891 16.8514 31.6704 16.9624C31.3553 17.0698 30.9811 17.1235 30.5479 17.1235ZM37.5571 17V9.24951H39.4155L41.5586 14.9214H41.6553L43.793 9.24951H45.6514V17H44.2065V11.7256H43.4062L44.9531 9.46436L42.1118 17H41.0967L38.2607 9.46436L39.8022 11.7256H39.002V17H37.5571ZM50.0073 17.1235C49.4022 17.1235 48.8812 17.0018 48.4443 16.7583C48.0075 16.5112 47.6727 16.1585 47.4399 15.7002C47.2072 15.2383 47.0908 14.6868 47.0908 14.0459V14.0352C47.0908 13.3978 47.209 12.8499 47.4453 12.3916C47.6816 11.9333 48.0164 11.5806 48.4497 11.3335C48.8866 11.0828 49.4058 10.9575 50.0073 10.9575C50.6089 10.9575 51.1263 11.0811 51.5596 11.3281C51.9964 11.5752 52.333 11.9297 52.5693 12.3916C52.8057 12.8499 52.9238 13.3978 52.9238 14.0352V14.0459C52.9238 14.6868 52.8075 15.2383 52.5747 15.7002C52.342 16.1585 52.0072 16.5112 51.5703 16.7583C51.137 17.0018 50.616 17.1235 50.0073 17.1235ZM50.0073 15.8936C50.2866 15.8936 50.5229 15.8201 50.7163 15.6733C50.9097 15.5265 51.0583 15.3153 51.1621 15.0396C51.266 14.7638 51.3179 14.4326 51.3179 14.0459V14.0352C51.3179 13.6484 51.266 13.319 51.1621 13.0469C51.0583 12.7712 50.9079 12.5599 50.7109 12.4131C50.5176 12.2627 50.283 12.1875 50.0073 12.1875C49.7316 12.1875 49.4953 12.2627 49.2983 12.4131C49.105 12.5599 48.9564 12.7712 48.8525 13.0469C48.7487 13.319 48.6968 13.6484 48.6968 14.0352V14.0459C48.6968 14.4362 48.7469 14.7692 48.8472 15.0449C48.951 15.3206 49.0996 15.5319 49.293 15.6787C49.4899 15.8219 49.728 15.8936 50.0073 15.8936ZM56.313 17.0913C55.8224 17.0913 55.3963 16.9696 55.0347 16.7261C54.6766 16.479 54.3991 16.1281 54.2021 15.6733C54.0088 15.2186 53.9121 14.6761 53.9121 14.0459V14.0352C53.9121 13.4014 54.007 12.8571 54.1968 12.4023C54.3901 11.9476 54.6659 11.5985 55.0239 11.355C55.382 11.1115 55.8117 10.9897 56.313 10.9897C56.5815 10.9897 56.8304 11.0327 57.0596 11.1187C57.2923 11.201 57.4964 11.3192 57.6719 11.4731C57.8473 11.6271 57.9834 11.8133 58.0801 12.0317H58.1768V8.8252H59.7451V17H58.1768V16.0815H58.0801C57.9798 16.2928 57.8438 16.4736 57.6719 16.624C57.5036 16.7744 57.3049 16.8908 57.0757 16.9731C56.8465 17.0519 56.5923 17.0913 56.313 17.0913ZM56.8447 15.7915C57.124 15.7915 57.3639 15.7217 57.5645 15.582C57.765 15.4424 57.9189 15.2419 58.0264 14.9805C58.1374 14.7191 58.1929 14.4093 58.1929 14.0513V14.0405C58.1929 13.6753 58.1374 13.3638 58.0264 13.106C57.9189 12.8446 57.7632 12.644 57.5591 12.5044C57.3586 12.3612 57.1204 12.2896 56.8447 12.2896C56.5726 12.2896 56.3345 12.3612 56.1304 12.5044C55.9299 12.644 55.7759 12.8446 55.6685 13.106C55.561 13.3638 55.5073 13.6735 55.5073 14.0352V14.0459C55.5073 14.4076 55.561 14.7191 55.6685 14.9805C55.7759 15.2419 55.9299 15.4424 56.1304 15.582C56.3309 15.7217 56.569 15.7915 56.8447 15.7915ZM61.3779 17V11.0864H62.9463V17H61.3779ZM62.1675 10.1787C61.9276 10.1787 61.7199 10.0946 61.5444 9.92627C61.369 9.75439 61.2812 9.5485 61.2812 9.30859C61.2812 9.0651 61.369 8.85921 61.5444 8.69092C61.7199 8.51904 61.9276 8.43311 62.1675 8.43311C62.411 8.43311 62.6187 8.51904 62.7905 8.69092C62.9624 8.85921 63.0483 9.0651 63.0483 9.30859C63.0483 9.5485 62.9624 9.75439 62.7905 9.92627C62.6187 10.0946 62.411 10.1787 62.1675 10.1787ZM64.9819 17V12.2681H64.0259V11.0864H64.9819V10.5332C64.9819 10.1393 65.0518 9.81169 65.1914 9.55029C65.3311 9.2889 65.5495 9.09375 65.8467 8.96484C66.1475 8.83236 66.536 8.76611 67.0122 8.76611C67.1733 8.76611 67.3184 8.77148 67.4473 8.78223C67.5798 8.79297 67.7033 8.80729 67.8179 8.8252V9.87256C67.7677 9.86182 67.7015 9.85465 67.6191 9.85107C67.5404 9.84391 67.4508 9.84033 67.3506 9.84033C67.0462 9.84033 66.8314 9.91016 66.7061 10.0498C66.5807 10.1859 66.5181 10.3828 66.5181 10.6406V11.0864H67.7695V12.2681H66.5503V17H64.9819ZM69.0264 17V11.0864H70.5947V17H69.0264ZM69.8159 10.1787C69.576 10.1787 69.3683 10.0946 69.1929 9.92627C69.0174 9.75439 68.9297 9.5485 68.9297 9.30859C68.9297 9.0651 69.0174 8.85921 69.1929 8.69092C69.3683 8.51904 69.576 8.43311 69.8159 8.43311C70.0594 8.43311 70.2671 8.51904 70.439 8.69092C70.6108 8.85921 70.6968 9.0651 70.6968 9.30859C70.6968 9.5485 70.6108 9.75439 70.439 9.92627C70.2671 10.0946 70.0594 10.1787 69.8159 10.1787ZM74.7734 17.1235C74.1755 17.1235 73.6598 17 73.2266 16.7529C72.7969 16.5023 72.4657 16.1478 72.2329 15.6895C72.0002 15.2311 71.8838 14.6851 71.8838 14.0513V14.0459C71.8838 13.4193 71.9984 12.875 72.2275 12.4131C72.4603 11.9512 72.7879 11.5931 73.2104 11.3389C73.6366 11.0846 74.1361 10.9575 74.709 10.9575C75.2855 10.9575 75.7832 11.0811 76.2021 11.3281C76.6211 11.5752 76.9434 11.9207 77.1689 12.3647C77.3945 12.8088 77.5073 13.3298 77.5073 13.9277V14.4165H72.668V13.4336H76.7554L76.0195 14.3628V13.7344C76.0195 13.3799 75.964 13.0845 75.853 12.8481C75.7456 12.6118 75.5952 12.4346 75.4019 12.3164C75.2121 12.1947 74.9901 12.1338 74.7358 12.1338C74.4852 12.1338 74.2614 12.1965 74.0645 12.3218C73.8711 12.4435 73.7171 12.6243 73.6025 12.8643C73.4915 13.1006 73.436 13.3906 73.436 13.7344V14.3682C73.436 14.7012 73.4915 14.9858 73.6025 15.2222C73.7135 15.4585 73.8711 15.6393 74.0752 15.7646C74.2793 15.89 74.5228 15.9526 74.8057 15.9526C75.0348 15.9526 75.23 15.9186 75.3911 15.8506C75.5522 15.7826 75.6812 15.7038 75.7778 15.6143C75.8781 15.5212 75.9461 15.437 75.9819 15.3618L75.998 15.3296H77.459L77.4482 15.3833C77.4017 15.5695 77.3175 15.7646 77.1958 15.9688C77.0741 16.1693 76.9058 16.3573 76.6909 16.5327C76.4797 16.7082 76.2147 16.8514 75.896 16.9624C75.5809 17.0698 75.2067 17.1235 74.7734 17.1235ZM80.9019 17.0913C80.4113 17.0913 79.9852 16.9696 79.6235 16.7261C79.2655 16.479 78.988 16.1281 78.791 15.6733C78.5977 15.2186 78.501 14.6761 78.501 14.0459V14.0352C78.501 13.4014 78.5959 12.8571 78.7856 12.4023C78.979 11.9476 79.2547 11.5985 79.6128 11.355C79.9709 11.1115 80.4006 10.9897 80.9019 10.9897C81.1704 10.9897 81.4193 11.0327 81.6484 11.1187C81.8812 11.201 82.0853 11.3192 82.2607 11.4731C82.4362 11.6271 82.5723 11.8133 82.6689 12.0317H82.7656V8.8252H84.334V17H82.7656V16.0815H82.6689C82.5687 16.2928 82.4326 16.4736 82.2607 16.624C82.0924 16.7744 81.8937 16.8908 81.6646 16.9731C81.4354 17.0519 81.1812 17.0913 80.9019 17.0913ZM81.4336 15.7915C81.7129 15.7915 81.9528 15.7217 82.1533 15.582C82.3538 15.4424 82.5078 15.2419 82.6152 14.9805C82.7262 14.7191 82.7817 14.4093 82.7817 14.0513V14.0405C82.7817 13.6753 82.7262 13.3638 82.6152 13.106C82.5078 12.8446 82.3521 12.644 82.1479 12.5044C81.9474 12.3612 81.7093 12.2896 81.4336 12.2896C81.1615 12.2896 80.9233 12.3612 80.7192 12.5044C80.5187 12.644 80.3647 12.8446 80.2573 13.106C80.1499 13.3638 80.0962 13.6735 80.0962 14.0352V14.0459C80.0962 14.4076 80.1499 14.7191 80.2573 14.9805C80.3647 15.2419 80.5187 15.4424 80.7192 15.582C80.9198 15.7217 81.1579 15.7915 81.4336 15.7915Z" fill="black" fill-opacity="0.85"/>
<path d="M177.5 16.2354C177.354 16.2354 177.22 16.1768 177.1 16.0596L173.756 12.6362C173.706 12.5894 173.668 12.5366 173.642 12.478C173.618 12.4165 173.606 12.3506 173.606 12.2803C173.606 12.1836 173.628 12.0957 173.672 12.0166C173.719 11.9375 173.781 11.876 173.857 11.832C173.933 11.7852 174.02 11.7617 174.116 11.7617C174.257 11.7617 174.38 11.8145 174.485 11.9199L177.715 15.229H177.289L180.515 11.9199C180.62 11.8145 180.743 11.7617 180.884 11.7617C180.98 11.7617 181.067 11.7852 181.143 11.832C181.219 11.876 181.279 11.9375 181.323 12.0166C181.37 12.0957 181.394 12.1836 181.394 12.2803C181.394 12.418 181.344 12.5366 181.244 12.6362L177.9 16.0596C177.844 16.1182 177.783 16.1621 177.715 16.1914C177.648 16.2207 177.576 16.2354 177.5 16.2354Z" fill="black" fill-opacity="0.5"/>
</svg>
