<svg width="18" height="14" viewBox="0 0 18 14" fill="none" xmlns="http://www.w3.org/2000/svg">
<g clip-path="url(#clip0_97_1444)">
<path d="M0.804173 2.53278V3.59248H16.9177V2.53278H0.804173ZM2.35992 13.8363H15.362C16.9403 13.8363 17.7219 13.0622 17.7219 11.5139V2.32985C17.7219 0.781624 16.9403 0 15.362 0H2.35992C0.789143 0 0 0.781624 0 2.32985V11.5139C0 13.0622 0.789143 13.8363 2.35992 13.8363ZM2.37495 12.6263C1.62338 12.6263 1.21002 12.228 1.21002 11.4463V2.39749C1.21002 1.61587 1.62338 1.21002 2.37495 1.21002H15.3469C16.091 1.21002 16.5119 1.61587 16.5119 2.39749V11.4463C16.5119 12.228 16.091 12.6263 15.3469 12.6263H2.37495Z" fill="white" fill-opacity="0.85"/>
<path d="M3.23169 10.7852C3.23169 11.176 3.50225 11.439 3.90058 11.439H13.8438C14.2421 11.439 14.5127 11.176 14.5127 10.7852V9.65776C14.5127 9.26696 14.2421 9.00391 13.8438 9.00391H3.90058C3.50225 9.00391 3.23169 9.26696 3.23169 9.65776V10.7852Z" fill="white" fill-opacity="0.85"/>
</g>
<defs>
<clipPath id="clip0_97_1444">
<rect width="18" height="13.8363" fill="white"/>
</clipPath>
</defs>
</svg>
