<svg width="16" height="21" viewBox="0 0 16 21" fill="none" xmlns="http://www.w3.org/2000/svg">
<g clip-path="url(#clip0_97_1439)">
<path d="M2.8854 20.2036H12.7702C14.6969 20.2036 15.6556 19.2263 15.6556 17.2903V8.83885C15.6556 7.63815 15.516 7.11692 14.7713 6.35368L9.64283 1.13204C8.93543 0.406035 8.34905 0.247803 7.30658 0.247803H2.8854C0.968 0.247803 0 1.23443 0 3.17044V17.2903C0 19.2356 0.958698 20.2036 2.8854 20.2036ZM2.95055 18.705C1.99185 18.705 1.49855 18.1931 1.49855 17.2624V3.19835C1.49855 2.27689 1.99185 1.74635 2.95986 1.74635H7.10181V7.15414C7.10181 8.32692 7.6882 8.904 8.85166 8.904H14.1571V17.2624C14.1571 18.1931 13.6637 18.705 12.6957 18.705H2.95055ZM9.0192 7.49853C8.6469 7.49853 8.50728 7.34961 8.50728 6.9773V2.03489L13.8686 7.49853H9.0192Z" fill="white" fill-opacity="0.85"/>
</g>
<defs>
<clipPath id="clip0_97_1439">
<rect width="16" height="19.9651" fill="white" transform="translate(0 0.247803)"/>
</clipPath>
</defs>
</svg>
