<svg width="19" height="18" viewBox="0 0 19 18" fill="none" xmlns="http://www.w3.org/2000/svg">
<g clip-path="url(#clip0_97_1433)">
<path d="M8.98128 17.8012C13.8604 17.8012 17.821 13.8407 17.821 8.9615C17.821 4.08235 13.8604 0.121826 8.98128 0.121826C4.10212 0.121826 0.141602 4.08235 0.141602 8.9615C0.141602 13.8407 4.10212 17.8012 8.98128 17.8012ZM8.98128 16.3279C4.90809 16.3279 1.61488 13.0347 1.61488 8.9615C1.61488 4.88831 4.90809 1.59511 8.98128 1.59511C13.0545 1.59511 16.3477 4.88831 16.3477 8.9615C16.3477 13.0347 13.0545 16.3279 8.98128 16.3279Z" fill="white" fill-opacity="0.85"/>
<path d="M8.9813 13.3294C9.15458 13.3294 9.31059 13.2774 9.48391 13.1041L12.3351 10.3482C12.4739 10.2183 12.5432 10.0795 12.5432 9.88893C12.5432 9.5336 12.2745 9.28228 11.9105 9.28228C11.7459 9.28228 11.5639 9.35158 11.4426 9.4902L10.1253 10.8942L9.61392 11.4315L9.67462 10.1316V5.26106C9.67462 4.89707 9.35399 4.59375 8.9813 4.59375C8.60865 4.59375 8.29665 4.89707 8.29665 5.26106V10.1316L8.34866 11.4315L7.83734 10.8942L6.52006 9.4902C6.39873 9.35158 6.20807 9.28228 6.04341 9.28228C5.67942 9.28228 5.41943 9.5336 5.41943 9.88893C5.41943 10.0795 5.48876 10.2183 5.61876 10.3482L8.47865 13.1041C8.65197 13.2774 8.80797 13.3294 8.9813 13.3294Z" fill="white" fill-opacity="0.85"/>
</g>
<defs>
<clipPath id="clip0_97_1433">
<rect width="18" height="17.688" fill="white" transform="translate(0.141602 0.121826)"/>
</clipPath>
</defs>
</svg>
