<svg width="17" height="17" viewBox="0 0 17 17" fill="none" xmlns="http://www.w3.org/2000/svg">
<path d="M8.00881 13.3472C10.9295 13.3472 13.3477 10.9238 13.3477 8.00832C13.3477 5.08764 10.9243 2.66943 8.00358 2.66943C5.08812 2.66943 2.66992 5.08764 2.66992 8.00832C2.66992 10.9238 5.09336 13.3472 8.00881 13.3472ZM8.00881 12.4574C5.53827 12.4574 3.56497 10.4789 3.56497 8.00832C3.56497 5.53778 5.53303 3.55925 8.00358 3.55925C10.4741 3.55925 12.4527 5.53778 12.4579 8.00832C12.4631 10.4789 10.4794 12.4574 8.00881 12.4574ZM8.00881 5.34411C7.78374 5.34411 7.61625 5.50637 7.61625 5.73668V8.35378L7.65812 9.4582L7.1347 8.83009L6.51183 8.20199C6.43855 8.13394 6.34433 8.08684 6.23442 8.08684C6.01981 8.08684 5.85755 8.25433 5.85755 8.4637C5.85755 8.57362 5.88896 8.66783 5.957 8.73588L7.70523 10.4789C7.80991 10.5836 7.89889 10.6254 8.00881 10.6254C8.12396 10.6254 8.21818 10.5783 8.31763 10.4789L10.0606 8.73588C10.1287 8.66783 10.1705 8.57362 10.1705 8.4637C10.1705 8.25433 10.003 8.08684 9.78844 8.08684C9.67329 8.08684 9.57907 8.12871 9.51103 8.20199L8.89339 8.83009L8.3595 9.46343L8.40138 8.35378V5.73668C8.40138 5.50637 8.23912 5.34411 8.00881 5.34411Z" fill="#666666"/>
</svg>
