<svg width="29" height="28" viewBox="0 0 29 28" fill="none" xmlns="http://www.w3.org/2000/svg">
<g style="mix-blend-mode:plus-darker">
<path d="M9.82812 21.958C8.97754 21.958 8.33219 21.7422 7.89209 21.3105C7.45622 20.8789 7.23828 20.2399 7.23828 19.3936V9.99902C7.23828 9.1569 7.45622 8.52002 7.89209 8.08838C8.33219 7.65251 8.97754 7.43457 9.82812 7.43457H19.1021L17.7056 8.83105H9.91064C9.50016 8.83105 9.1849 8.93896 8.96484 9.15479C8.74902 9.36637 8.64111 9.68587 8.64111 10.1133V19.2793C8.64111 19.7067 8.74902 20.0262 8.96484 20.2378C9.1849 20.4536 9.50016 20.5615 9.91064 20.5615H19.2671C19.5929 20.5615 19.8574 20.4536 20.0605 20.2378C20.2637 20.0262 20.3652 19.7067 20.3652 19.2793V11.5479L21.7617 10.145V19.3936C21.7617 20.2399 21.5501 20.8789 21.127 21.3105C20.708 21.7422 20.1156 21.958 19.3496 21.958H9.82812ZM13.0083 16.4609C12.9237 16.499 12.8475 16.4821 12.7798 16.4102C12.7121 16.334 12.6951 16.2557 12.729 16.1753L13.4336 14.6582L20.9302 7.16162L22.0664 8.2915L14.5635 15.7944L13.0083 16.4609ZM22.6631 7.70117L21.5269 6.55859L22.0728 6.01904C22.2166 5.87516 22.3817 5.79688 22.5679 5.78418C22.7541 5.76725 22.9128 5.82438 23.0439 5.95557L23.2344 6.13965C23.374 6.28353 23.4417 6.44857 23.4375 6.63477C23.4375 6.82096 23.3634 6.98812 23.2153 7.13623L22.6631 7.70117Z" fill="#4C4C4C"/>
</g>
</svg>
