<svg width="19" height="18" viewBox="0 0 19 18" fill="none" xmlns="http://www.w3.org/2000/svg">
<g clip-path="url(#clip0_127_685)">
<path d="M3.06641 17.9785H14.9121C16.9629 17.9785 17.9785 16.9727 17.9785 14.9609V3.02734C17.9785 1.01562 16.9629 0 14.9121 0H3.06641C1.02539 0 0 1.01562 0 3.02734V14.9609C0 16.9727 1.02539 17.9785 3.06641 17.9785ZM3.08594 16.4062C2.10938 16.4062 1.57227 15.8887 1.57227 14.873V3.11523C1.57227 2.09961 2.10938 1.57227 3.08594 1.57227H14.8926C15.8594 1.57227 16.4062 2.09961 16.4062 3.11523V14.873C16.4062 15.8887 15.8594 16.4062 14.8926 16.4062H3.08594Z" fill="white" fill-opacity="0.85"/>
<path d="M6.19128 14.0234L8.99401 11.9629L11.7968 14.0234C12.3729 14.4531 12.9687 14.0039 12.7538 13.3398L11.6405 10.0293L14.4726 8.00781C14.9901 7.62695 14.8339 6.86523 14.1112 6.875L10.6347 6.9043L9.57018 3.57422C9.3651 2.92969 8.62292 2.92969 8.41784 3.57422L7.35339 6.9043L3.87682 6.875C3.16393 6.86523 2.98815 7.61719 3.51549 8.00781L6.34753 10.0293L5.24401 13.3398C5.0194 14.0039 5.62487 14.4531 6.19128 14.0234Z" fill="white" fill-opacity="0.85"/>
</g>
<defs>
<clipPath id="clip0_127_685">
<rect width="18.3398" height="17.9785" fill="white"/>
</clipPath>
</defs>
</svg>
