<svg width="18" height="20" viewBox="0 0 18 20" fill="none" xmlns="http://www.w3.org/2000/svg">
<g clip-path="url(#clip0_103_2724)">
<path d="M1.37695 19.1699C1.78711 19.1699 2.11914 18.8477 2.11914 18.4375V13.0078C2.36328 12.9004 3.28125 12.5488 4.7168 12.5488C8.33008 12.5488 10.5957 14.3164 14.0332 14.3164C15.5566 14.3164 16.123 14.1504 16.8652 13.8184C17.5391 13.5156 17.9785 13.0078 17.9785 12.1094V2.19727C17.9785 1.66992 17.5293 1.36719 16.9629 1.36719C16.4844 1.36719 15.5859 1.77734 13.9062 1.77734C10.4688 1.77734 8.21289 0.00976562 4.58984 0.00976562C3.06641 0.00976562 2.49023 0.175781 1.74805 0.507812C1.07422 0.810547 0.634766 1.31836 0.634766 2.20703V18.4375C0.634766 18.8379 0.976562 19.1699 1.37695 19.1699ZM14.0332 12.8418C10.7812 12.8418 8.47656 11.0742 4.7168 11.0742C3.64258 11.0742 2.66602 11.2012 2.11914 11.4258V2.25586C2.25586 1.93359 3.06641 1.48438 4.58984 1.48438C8.02734 1.48438 10.3223 3.25195 13.9062 3.25195C14.9707 3.25195 15.8496 3.125 16.5039 2.93945V12.0703C16.3672 12.3926 15.5566 12.8418 14.0332 12.8418Z" fill="white" fill-opacity="0.85"/>
</g>
<defs>
<clipPath id="clip0_103_2724">
<rect width="17.9785" height="19.1699" fill="white"/>
</clipPath>
</defs>
</svg>
