<svg width="33" height="28" viewBox="0 0 33 28" fill="none" xmlns="http://www.w3.org/2000/svg">
<g style="mix-blend-mode:plus-darker">
<path d="M9.77783 21.8882C8.92725 21.8882 8.2819 21.6702 7.8418 21.2344C7.40592 20.8027 7.18799 20.1659 7.18799 19.3237V9.28809C7.18799 8.47135 7.39111 7.85563 7.79736 7.44092C8.20361 7.02197 8.7749 6.8125 9.51123 6.8125H11.8281C12.1117 6.8125 12.355 6.83154 12.5581 6.86963C12.7612 6.90771 12.9474 6.97331 13.1167 7.06641C13.286 7.15527 13.4637 7.27799 13.6499 7.43457L14.1133 7.82178C14.3376 8.01221 14.5513 8.14551 14.7544 8.22168C14.9618 8.29362 15.2157 8.32959 15.5161 8.32959H23.2158C24.0664 8.32959 24.7096 8.54753 25.1455 8.9834C25.5856 9.41504 25.8057 10.0519 25.8057 10.894V19.3237C25.8057 20.1616 25.5941 20.7985 25.1709 21.2344C24.752 21.6702 24.1574 21.8882 23.3872 21.8882H9.77783ZM9.86035 20.4854H23.1333C23.5353 20.4854 23.8464 20.3774 24.0664 20.1616C24.2907 19.95 24.4028 19.6326 24.4028 19.2095V11.0083C24.4028 10.5851 24.2907 10.2677 24.0664 10.0562C23.8464 9.84033 23.5353 9.73242 23.1333 9.73242H15.1543C14.8708 9.73242 14.6253 9.71338 14.418 9.67529C14.2148 9.63721 14.0265 9.57373 13.853 9.48486C13.6838 9.39176 13.5081 9.26693 13.3262 9.11035L12.8628 8.72949C12.7104 8.59831 12.5645 8.49463 12.4248 8.41846C12.2894 8.34229 12.1455 8.28939 11.9932 8.25977C11.8451 8.22591 11.6715 8.20898 11.4727 8.20898H9.78418C9.39909 8.20898 9.10286 8.31055 8.89551 8.51367C8.69238 8.71257 8.59082 9.0109 8.59082 9.40869V19.2031C8.59082 19.6305 8.69873 19.95 8.91455 20.1616C9.13037 20.3774 9.44564 20.4854 9.86035 20.4854ZM8.05762 12.811V11.5669H24.9487V12.811H8.05762Z" fill="#4C4C4C"/>
</g>
</svg>
