<svg width="19" height="18" viewBox="0 0 19 18" fill="none" xmlns="http://www.w3.org/2000/svg">
<g clip-path="url(#clip0_127_667)">
<path d="M3.17952 17.8119H14.8057C16.8185 17.8119 17.8153 16.8247 17.8153 14.8502V3.13775C17.8153 1.16331 16.8185 0.166504 14.8057 0.166504H3.17952C1.17631 0.166504 0.169922 1.16331 0.169922 3.13775V14.8502C0.169922 16.8247 1.17631 17.8119 3.17952 17.8119ZM3.19869 16.2687C2.24022 16.2687 1.71306 15.7608 1.71306 14.7639V3.22402C1.71306 2.22721 2.24022 1.70964 3.19869 1.70964H14.7866C15.7355 1.70964 16.2721 2.22721 16.2721 3.22402V14.7639C16.2721 15.7608 15.7355 16.2687 14.7866 16.2687H3.19869ZM2.40315 16.8439H15.6013C15.0358 14.1505 12.3329 12.1953 9.00701 12.1953C5.67153 12.1953 2.96865 14.1505 2.40315 16.8439ZM8.99742 10.5946C10.8281 10.6138 12.2754 9.05151 12.2754 7.00039C12.2754 5.07386 10.8281 3.48281 8.99742 3.48281C7.16675 3.48281 5.70987 5.07386 5.71946 7.00039C5.72904 9.05151 7.16675 10.5755 8.99742 10.5946Z" fill="white" fill-opacity="0.85"/>
</g>
<defs>
<clipPath id="clip0_127_667">
<rect width="18" height="17.6454" fill="white" transform="translate(0.169922 0.166504)"/>
</clipPath>
</defs>
</svg>
