<svg width="24" height="17" viewBox="0 0 24 17" fill="none" xmlns="http://www.w3.org/2000/svg">
<g clip-path="url(#clip0_103_2758)">
<path d="M3.06641 16.6895H19.9609C22.0117 16.6895 23.0273 15.6738 23.0273 13.6621V7.88086C23.0273 7.00195 22.9102 6.5625 22.4707 6.02539L19.1016 1.85547C17.959 0.449219 17.4512 0.0195312 15.7129 0.0195312H7.31445C5.57617 0.0195312 5.07812 0.449219 3.93555 1.85547L0.556641 6.02539C0.126953 6.5625 0 7.00195 0 7.88086V13.6621C0 15.6836 1.02539 16.6895 3.06641 16.6895ZM2.06055 7.29492C1.73828 7.29492 1.66992 7.01172 1.83594 6.80664L5.45898 2.23633C5.9375 1.63086 6.48438 1.38672 7.19727 1.38672H15.8301C16.543 1.38672 17.0898 1.63086 17.5684 2.23633L21.2012 6.80664C21.3574 7.01172 21.2988 7.29492 20.9766 7.29492H14.5312C14.0234 7.29492 13.7891 7.67578 13.7891 8.08594V8.11523C13.7891 9.24805 12.9004 10.4492 11.5137 10.4492C10.1367 10.4492 9.24805 9.24805 9.24805 8.11523V8.08594C9.24805 7.67578 9.00391 7.29492 8.49609 7.29492H2.06055ZM3.08594 15.1172C2.10938 15.1172 1.57227 14.5996 1.57227 13.584V8.7207H7.76367C7.99805 10.5469 9.53125 11.8945 11.5137 11.8945C13.4961 11.8945 15.0293 10.5371 15.2637 8.7207H21.4551V13.584C21.4551 14.5996 20.9082 15.1172 19.9414 15.1172H3.08594Z" fill="white" fill-opacity="0.85"/>
</g>
<defs>
<clipPath id="clip0_103_2758">
<rect width="23.3887" height="16.6895" fill="white"/>
</clipPath>
</defs>
</svg>
