<svg width="160" height="28" viewBox="0 0 160 28" fill="none" xmlns="http://www.w3.org/2000/svg">
<mask id="path-1-inside-1_99_1884" fill="white">
<path d="M0 0H160V28H0V0Z"/>
</mask>
<path d="M160 28V27H0V28V29H160V28Z" fill="black" fill-opacity="0.05" mask="url(#path-1-inside-1_99_1884)"/>
<mask id="path-3-inside-2_99_1884" fill="white">
<path d="M0 4H160V23H0V4Z"/>
</mask>
<path d="M0 23H1V4H0H-1V23H0Z" fill="black" fill-opacity="0.1" mask="url(#path-3-inside-2_99_1884)"/>
<path d="M10.0732 14.5347L10.0142 12.9126H10.2666L13.4678 9.24951H14.8965L11.792 12.7354L11.1528 13.3101L10.0732 14.5347ZM8.97217 17V9.24951H10.1753V17H8.97217ZM13.645 17L10.9541 13.2993L11.8027 12.4829L15.1489 17H13.645ZM16.3091 17V11.167H17.48V17H16.3091ZM16.8999 10.125C16.6994 10.125 16.5275 10.0534 16.3843 9.91016C16.241 9.76693 16.1694 9.59505 16.1694 9.39453C16.1694 9.19401 16.241 9.02393 16.3843 8.88428C16.5275 8.74105 16.6994 8.66943 16.8999 8.66943C17.1004 8.66943 17.2723 8.74105 17.4155 8.88428C17.5588 9.02393 17.6304 9.19401 17.6304 9.39453C17.6304 9.59505 17.5588 9.76693 17.4155 9.91016C17.2723 10.0534 17.1004 10.125 16.8999 10.125ZM19.1719 17V11.167H20.3374V12.0479H20.4287C20.5719 11.7363 20.7832 11.4928 21.0625 11.3174C21.3418 11.1419 21.6945 11.0542 22.1206 11.0542C22.7759 11.0542 23.2772 11.2422 23.6245 11.6182C23.9718 11.9941 24.1455 12.5295 24.1455 13.2241V17H22.9746V13.498C22.9746 13.0111 22.8726 12.6494 22.6685 12.4131C22.4679 12.1732 22.1528 12.0532 21.7231 12.0532C21.4403 12.0532 21.195 12.1159 20.9873 12.2412C20.7796 12.363 20.6185 12.5384 20.5039 12.7676C20.3929 12.9932 20.3374 13.2635 20.3374 13.5786V17H19.1719ZM27.8945 17.0967C27.4076 17.0967 26.9814 16.9749 26.6162 16.7314C26.2546 16.4844 25.9735 16.1353 25.7729 15.6841C25.576 15.2329 25.4775 14.7012 25.4775 14.0889V14.0781C25.4775 13.4622 25.576 12.9287 25.7729 12.4775C25.9699 12.0264 26.2492 11.679 26.6108 11.4355C26.9725 11.1885 27.4004 11.0649 27.8945 11.0649C28.1631 11.0649 28.4137 11.1079 28.6465 11.1938C28.8792 11.2762 29.0851 11.3944 29.2642 11.5483C29.4432 11.6987 29.5846 11.8796 29.6885 12.0908H29.7744V8.87891H30.9453V17H29.7744V16.0815H29.6885C29.5739 16.2928 29.4289 16.4754 29.2534 16.6294C29.078 16.7798 28.8757 16.8962 28.6465 16.9785C28.4173 17.0573 28.1667 17.0967 27.8945 17.0967ZM28.2275 16.0977C28.5498 16.0977 28.8291 16.0171 29.0654 15.856C29.3018 15.6948 29.4826 15.4639 29.6079 15.1631C29.7332 14.8587 29.7959 14.5007 29.7959 14.0889V14.0781C29.7959 13.6628 29.7314 13.3047 29.6025 13.0039C29.4772 12.7031 29.2964 12.4722 29.0601 12.311C28.8273 12.1463 28.5498 12.064 28.2275 12.064C27.9053 12.064 27.626 12.1463 27.3896 12.311C27.1569 12.4722 26.9779 12.7031 26.8525 13.0039C26.7308 13.3011 26.6699 13.6592 26.6699 14.0781V14.0889C26.6699 14.5042 26.7308 14.8623 26.8525 15.1631C26.9779 15.4639 27.1569 15.6948 27.3896 15.856C27.626 16.0171 27.9053 16.0977 28.2275 16.0977Z" fill="black" fill-opacity="0.5"/>
</svg>
