<svg width="33" height="28" viewBox="0 0 33 28" fill="none" xmlns="http://www.w3.org/2000/svg">
<g style="mix-blend-mode:plus-darker">
<path d="M17.0142 23.272C16.4217 23.8602 15.8187 24.1543 15.2051 24.1543C14.5957 24.1585 13.9906 23.8623 13.3896 23.2656L8.16553 18.0479C7.56462 17.4512 7.26628 16.846 7.27051 16.2324C7.27474 15.6188 7.57096 15.0158 8.15918 14.4233L16.2207 6.38721C16.4238 6.17985 16.6079 6.02962 16.7729 5.93652C16.9422 5.84342 17.1263 5.78206 17.3252 5.75244C17.5241 5.72282 17.778 5.70801 18.0869 5.70801H21.1909C21.4787 5.70801 21.7157 5.7334 21.9019 5.78418C22.0881 5.83496 22.2616 5.92171 22.4224 6.04443C22.5832 6.16292 22.7736 6.33219 22.9937 6.55225L24.8789 8.44385C25.099 8.65967 25.2703 8.8501 25.3931 9.01514C25.5158 9.17594 25.6004 9.34945 25.647 9.53564C25.6978 9.71761 25.7231 9.95247 25.7231 10.2402V13.3506C25.7231 13.6553 25.7083 13.9092 25.6787 14.1123C25.6533 14.3112 25.5941 14.4953 25.501 14.6646C25.4079 14.8296 25.2576 15.0137 25.0503 15.2168L17.0142 23.272ZM16.1064 22.1992L24.0728 14.2202C24.1616 14.1313 24.2272 14.0382 24.2695 13.9409C24.3161 13.8394 24.3394 13.7166 24.3394 13.5728V10.2402C24.3394 9.99902 24.2484 9.78532 24.0664 9.59912L21.832 7.36475C21.6501 7.18278 21.4385 7.0918 21.1973 7.0918H17.8584C17.7188 7.0918 17.5981 7.11507 17.4966 7.16162C17.3993 7.20817 17.3062 7.27799 17.2173 7.37109L9.23193 15.3374C8.93994 15.6252 8.79183 15.9235 8.7876 16.2324C8.7876 16.5371 8.93783 16.8397 9.23828 17.1401L14.2974 22.1929C14.9025 22.798 15.5055 22.8001 16.1064 22.1992ZM20.207 12.335C19.8896 12.335 19.6252 12.2292 19.4136 12.0176C19.2062 11.8018 19.1025 11.5394 19.1025 11.2305C19.1025 10.9215 19.2062 10.6613 19.4136 10.4497C19.6252 10.2339 19.8896 10.126 20.207 10.126C20.5202 10.126 20.7826 10.2339 20.9941 10.4497C21.2057 10.6613 21.3115 10.9215 21.3115 11.2305C21.3115 11.5394 21.2057 11.8018 20.9941 12.0176C20.7826 12.2292 20.5202 12.335 20.207 12.335Z" fill="#4C4C4C"/>
</g>
</svg>
