<svg width="25" height="20" viewBox="0 0 25 20" fill="none" xmlns="http://www.w3.org/2000/svg">
<g clip-path="url(#clip0_4_2)">
<path d="M19.4727 3.02734V4.52148H17.9004V3.11523C17.9004 2.09961 17.3438 1.57227 16.377 1.57227H3.08594C2.10938 1.57227 1.57227 2.09961 1.57227 3.11523V12.1582C1.57227 13.1738 2.10938 13.6914 3.08594 13.6914H4.82422V15.2637H3.06641C1.01562 15.2637 0 14.2578 0 12.2363V3.02734C0 1.01562 1.01562 0 3.06641 0H16.4062C18.4375 0 19.4727 1.01562 19.4727 3.02734Z" fill="white" fill-opacity="0.85"/>
<path d="M11.7871 12.0117C12.9199 12.0117 13.8477 11.0645 13.8477 9.92188C13.8477 8.79883 12.9199 7.85156 11.7871 7.85156C10.6445 7.85156 9.7168 8.79883 9.7168 9.92188C9.7168 11.0645 10.6445 12.0117 11.7871 12.0117ZM7.91992 19.2676H20.9961C22.6953 19.2676 23.6035 18.4082 23.6035 16.6992V16.0742L19.0723 11.7969C18.6914 11.4453 18.2227 11.2695 17.7539 11.2695C17.2656 11.2695 16.8359 11.4258 16.4355 11.7871L12.4902 15.2832L10.918 13.8672C10.5469 13.5254 10.1465 13.3691 9.72656 13.3691C9.3457 13.3691 8.98438 13.5254 8.60352 13.8477L5.3125 16.709C5.3125 18.4082 6.2207 19.2676 7.91992 19.2676ZM7.89062 19.7852H21.2305C23.2617 19.7852 24.2969 18.7695 24.2969 16.7578V7.54883C24.2969 5.53711 23.2617 4.52148 21.2305 4.52148H7.89062C5.83984 4.52148 4.82422 5.53711 4.82422 7.54883V16.7578C4.82422 18.7793 5.83984 19.7852 7.89062 19.7852ZM7.91016 18.2129C6.93359 18.2129 6.39648 17.6953 6.39648 16.6797V7.63672C6.39648 6.62109 6.93359 6.09375 7.91016 6.09375H21.2012C22.168 6.09375 22.7246 6.62109 22.7246 7.63672V16.6797C22.7246 17.6953 22.168 18.2129 21.2012 18.2129H7.91016Z" fill="white" fill-opacity="0.85"/>
</g>
<defs>
<clipPath id="clip0_4_2">
<rect width="24.6582" height="19.7949" fill="white"/>
</clipPath>
</defs>
</svg>
