<svg width="28" height="25" viewBox="0 0 28 25" fill="none" xmlns="http://www.w3.org/2000/svg">
<path fill-rule="evenodd" clip-rule="evenodd" d="M10.3594 6.44531H18.0156C18.5233 6.44531 19.0101 6.64697 19.3691 7.00593C19.728 7.36488 19.9297 7.85173 19.9297 8.35938V16.0156C19.9297 16.5233 19.728 17.0101 19.3691 17.3691C19.0101 17.728 18.5233 17.9297 18.0156 17.9297H10.3594C9.85173 17.9297 9.36488 17.728 9.00593 17.3691C8.64697 17.0101 8.44531 16.5233 8.44531 16.0156V8.35938C8.44531 7.85173 8.64697 7.36488 9.00593 7.00593C9.36488 6.64697 9.85173 6.44531 10.3594 6.44531ZM10.3594 7.59375C10.1563 7.59375 9.96158 7.67441 9.818 7.818C9.67441 7.96158 9.59375 8.15632 9.59375 8.35938V16.0156C9.59375 16.2187 9.67441 16.4134 9.818 16.557C9.96158 16.7006 10.1563 16.7812 10.3594 16.7812H18.0156C18.2187 16.7812 18.4134 16.7006 18.557 16.557C18.7006 16.4134 18.7812 16.2187 18.7812 16.0156V8.35938C18.7812 8.15632 18.7006 7.96158 18.557 7.818C18.4134 7.67441 18.2187 7.59375 18.0156 7.59375H10.3594Z" fill="white"/>
</svg>
