<svg width="21" height="17" viewBox="0 0 21 17" fill="none" xmlns="http://www.w3.org/2000/svg">
<g clip-path="url(#clip0_127_657)">
<path d="M2.41371 13.9775H18.07C19.3313 13.9775 20.096 13.205 20.096 11.9515V2.90932C20.096 1.65587 19.3313 0.883301 18.07 0.883301H2.41371C1.16026 0.883301 0.387695 1.65587 0.387695 2.90932V11.9515C0.387695 13.205 1.16026 13.9775 2.41371 13.9775ZM2.43736 12.7083C1.94859 12.7083 1.65691 12.4166 1.65691 11.9357V2.92508C1.65691 2.4442 1.94859 2.15252 2.43736 2.15252H18.0463C18.5351 2.15252 18.8268 2.4442 18.8268 2.92508V11.9357C18.8268 12.4166 18.5351 12.7083 18.0463 12.7083H2.43736ZM6.27654 16.6499H14.2071C14.554 16.6499 14.8457 16.3662 14.8457 16.0114C14.8457 15.6567 14.554 15.3728 14.2071 15.3728H6.27654C5.92967 15.3728 5.63799 15.6567 5.63799 16.0114C5.63799 16.3662 5.92967 16.6499 6.27654 16.6499Z" fill="white" fill-opacity="0.85"/>
<path d="M12.6226 5.99953C13.001 5.89705 13.1114 5.81821 13.1114 5.36098V3.81585C13.1114 3.51628 13.009 3.38226 12.5911 3.48475L10.2813 4.06023C9.89498 4.15483 9.80828 4.23366 9.80828 4.69878V8.25416C9.80828 8.60103 9.7768 8.66409 9.38262 8.77446L8.6573 8.96369C7.93995 9.15283 7.34082 9.57857 7.34082 10.3511C7.34082 11.0212 7.84535 11.51 8.63365 11.51C9.76098 11.51 10.5257 10.698 10.5257 9.55492V6.85093C10.5257 6.55925 10.5966 6.48041 10.77 6.441L12.6226 5.99953Z" fill="white" fill-opacity="0.85"/>
</g>
<defs>
<clipPath id="clip0_127_657">
<rect width="20" height="15.7745" fill="white" transform="translate(0.387695 0.883301)"/>
</clipPath>
</defs>
</svg>
