<svg width="24" height="24" viewBox="0 0 24 24" fill="none" xmlns="http://www.w3.org/2000/svg">
<path d="M5.93005 20.16C5.6702 20.1765 5.40967 20.1406 5.164 20.0544C4.91832 19.9681 4.69252 19.8333 4.50005 19.658C4.16605 19.323 3.99805 18.864 3.99805 18.265V11.123C3.99805 10.761 4.06005 10.435 4.17505 10.17C4.29805 9.90597 4.50105 9.64097 4.77505 9.41997L10.92 4.26297C11.096 4.12197 11.264 4.01597 11.44 3.94497C11.616 3.87497 11.802 3.83997 12.004 3.83997C12.198 3.83997 12.392 3.87497 12.569 3.94497C12.745 4.01497 12.921 4.12197 13.089 4.26297L19.235 9.42097C19.508 9.65097 19.702 9.89697 19.825 10.171C19.949 10.435 20.002 10.761 20.002 11.131V18.265C20.002 18.855 19.843 19.323 19.499 19.658C19.164 19.993 18.688 20.161 18.071 20.161H5.92905L5.93005 20.16ZM18.07 18.988C18.291 18.988 18.476 18.918 18.617 18.776C18.6873 18.7108 18.7431 18.6317 18.781 18.5437C18.8189 18.4557 18.838 18.3608 18.837 18.265V11.123C18.837 10.946 18.811 10.779 18.75 10.664C18.69 10.5275 18.5993 10.4067 18.485 10.311L12.331 5.16197C12.2777 5.11554 12.2181 5.07683 12.154 5.04697C12.1071 5.02491 12.0559 5.01298 12.004 5.01197C11.9494 5.01183 11.8955 5.02378 11.846 5.04697L11.669 5.16197L5.52405 10.312C5.40692 10.4067 5.31317 10.5272 5.25005 10.664C5.1878 10.8119 5.1578 10.9715 5.16205 11.132V18.265C5.16205 18.468 5.24205 18.644 5.39205 18.776C5.46398 18.8464 5.54946 18.9015 5.64331 18.938C5.73716 18.9744 5.83743 18.9914 5.93805 18.988H18.07ZM9.74705 14.288C9.74705 14.112 9.80905 13.962 9.92405 13.856C10.0389 13.7499 10.1907 13.6928 10.347 13.697H13.662C13.838 13.697 13.988 13.75 14.094 13.857C14.2 13.964 14.253 14.112 14.253 14.288V19.261H9.75605V14.288H9.74705Z" fill="#FA586A"/>
</svg>
