<svg width="208" height="28" viewBox="0 0 208 28" fill="none" xmlns="http://www.w3.org/2000/svg">
<mask id="path-1-inside-1_99_1861" fill="white">
<path d="M0 0H208V28H0V0Z"/>
</mask>
<path d="M208 28V27H0V28V29H208V28Z" fill="black" fill-opacity="0.05" mask="url(#path-1-inside-1_99_1861)"/>
<path d="M48.9722 17V9.24951H50.0625L54.3379 15.3027L53.5161 14.8784H54.123V9.24951H55.2993V17H54.209L49.9282 10.9521L50.7554 11.3765H50.1431V17H48.9722ZM58.71 17.0967C58.3411 17.0967 58.0099 17.0269 57.7163 16.8872C57.4263 16.744 57.1971 16.5417 57.0288 16.2803C56.8605 16.0189 56.7764 15.7127 56.7764 15.3618V15.3511C56.7764 15.0002 56.8605 14.7012 57.0288 14.4541C57.2007 14.207 57.4478 14.0137 57.77 13.874C58.0959 13.7308 58.4897 13.6449 58.9517 13.6162L61.1055 13.4873V14.3091L59.1128 14.438C58.7118 14.4631 58.4163 14.549 58.2266 14.6958C58.0368 14.839 57.9419 15.0413 57.9419 15.3027V15.3135C57.9419 15.5785 58.0439 15.7879 58.248 15.9419C58.4521 16.0923 58.71 16.1675 59.0215 16.1675C59.3115 16.1675 59.5693 16.1102 59.7949 15.9956C60.0241 15.8774 60.2031 15.7199 60.332 15.5229C60.4609 15.3224 60.5254 15.0968 60.5254 14.8462V13.0093C60.5254 12.687 60.4251 12.4417 60.2246 12.2734C60.0277 12.1016 59.734 12.0156 59.3438 12.0156C59.0179 12.0156 58.7511 12.0729 58.5435 12.1875C58.3394 12.3021 58.2033 12.4632 58.1353 12.6709L58.1245 12.687H57.002L57.0073 12.6494C57.0539 12.3271 57.181 12.0479 57.3887 11.8115C57.5999 11.5716 57.8757 11.3854 58.2158 11.2529C58.5596 11.1204 58.9517 11.0542 59.3921 11.0542C59.8826 11.0542 60.298 11.133 60.6382 11.2905C60.9819 11.4445 61.2415 11.6683 61.417 11.9619C61.596 12.252 61.6855 12.6011 61.6855 13.0093V17H60.5254V16.1729H60.4395C60.3249 16.3698 60.1816 16.5381 60.0098 16.6777C59.8379 16.8138 59.6427 16.9176 59.4243 16.9893C59.2059 17.0609 58.9678 17.0967 58.71 17.0967ZM63.3291 17V11.167H64.4946V12.064H64.5859C64.7148 11.7417 64.9154 11.4928 65.1875 11.3174C65.4632 11.1419 65.7926 11.0542 66.1758 11.0542C66.4408 11.0542 66.6789 11.0972 66.8901 11.1831C67.1014 11.269 67.2822 11.3908 67.4326 11.5483C67.5866 11.7023 67.7065 11.8849 67.7925 12.0962H67.8838C67.9805 11.8849 68.1165 11.7023 68.292 11.5483C68.4674 11.3908 68.6715 11.269 68.9043 11.1831C69.1406 11.0972 69.3913 11.0542 69.6562 11.0542C70.0501 11.0542 70.3867 11.1312 70.666 11.2852C70.9453 11.4355 71.1584 11.654 71.3052 11.9404C71.452 12.2269 71.5254 12.5724 71.5254 12.9771V17H70.3599V13.2563C70.3599 12.9878 70.3187 12.7658 70.2363 12.5903C70.154 12.4113 70.0286 12.277 69.8604 12.1875C69.6956 12.098 69.488 12.0532 69.2373 12.0532C68.9902 12.0532 68.7736 12.1105 68.5874 12.2251C68.4048 12.3361 68.2616 12.4865 68.1577 12.6763C68.0575 12.8625 68.0073 13.0737 68.0073 13.3101V17H66.8418V13.1382C66.8418 12.9162 66.7952 12.7246 66.7021 12.5635C66.6126 12.3988 66.4837 12.2734 66.3154 12.1875C66.1471 12.098 65.9484 12.0532 65.7192 12.0532C65.4865 12.0532 65.277 12.1141 65.0908 12.2358C64.9082 12.3576 64.7632 12.5223 64.6558 12.73C64.5483 12.9341 64.4946 13.1632 64.4946 13.4175V17H63.3291ZM75.6074 17.1128C75.0381 17.1128 74.5493 16.991 74.1411 16.7476C73.7329 16.5005 73.4178 16.1514 73.1958 15.7002C72.9774 15.249 72.8682 14.7155 72.8682 14.0996V14.0942C72.8682 13.4855 72.9774 12.9538 73.1958 12.499C73.4178 12.0443 73.7293 11.6898 74.1304 11.4355C74.535 11.1813 75.0076 11.0542 75.5483 11.0542C76.0926 11.0542 76.5599 11.1759 76.9502 11.4194C77.3441 11.6629 77.6466 12.0049 77.8579 12.4453C78.0692 12.8822 78.1748 13.3942 78.1748 13.9814V14.3896H73.459V13.5571H77.5947L77.0361 14.3306V13.8633C77.0361 13.4479 76.9717 13.1042 76.8428 12.832C76.7174 12.5563 76.5438 12.3504 76.3218 12.2144C76.0998 12.0783 75.8438 12.0103 75.5537 12.0103C75.2637 12.0103 75.0041 12.0819 74.7749 12.2251C74.5493 12.3647 74.3703 12.5724 74.2378 12.8481C74.1089 13.1239 74.0444 13.4622 74.0444 13.8633V14.3306C74.0444 14.7137 74.1089 15.0413 74.2378 15.3135C74.3667 15.5856 74.5493 15.7933 74.7856 15.9365C75.0256 16.0798 75.3084 16.1514 75.6343 16.1514C75.8849 16.1514 76.0998 16.1174 76.2788 16.0493C76.4614 15.9777 76.61 15.89 76.7246 15.7861C76.8428 15.6823 76.9233 15.5802 76.9663 15.48L76.9878 15.437H78.1157L78.105 15.4854C78.0549 15.6787 77.9671 15.8721 77.8418 16.0654C77.7165 16.2552 77.55 16.4289 77.3423 16.5864C77.1382 16.744 76.8911 16.8711 76.6011 16.9678C76.3146 17.0645 75.9834 17.1128 75.6074 17.1128Z" fill="black" fill-opacity="0.5"/>
</svg>
