<svg width="17" height="17" viewBox="0 0 17 17" fill="none" xmlns="http://www.w3.org/2000/svg">
<path d="M8.00844 12.6798C8.2859 12.6798 8.51806 12.4635 8.51806 12.1972V8.50765H12.176C12.4478 8.50765 12.68 8.28018 12.68 8.00832C12.68 7.73646 12.4478 7.51454 12.176 7.51454H8.51806V3.81948C8.51806 3.55317 8.2859 3.33679 8.00844 3.33679C7.73098 3.33679 7.50448 3.55317 7.50448 3.81948V7.51454H3.84087C3.56907 7.51454 3.33691 7.73646 3.33691 8.00832C3.33691 8.28018 3.56907 8.50765 3.84087 8.50765H7.50448V12.1972C7.50448 12.4635 7.73098 12.6798 8.00844 12.6798Z" fill="#666666"/>
</svg>
