<svg width="19" height="18" viewBox="0 0 19 18" fill="none" xmlns="http://www.w3.org/2000/svg">
<g clip-path="url(#clip0_108_3613)">
<path d="M0.98462 9.78019H8.22105V17.0167H9.76419V9.78019H17.0006V8.23706H9.76419V1.00062H8.22105V8.23706H0.98462V9.78019ZM0.169922 17.0549C0.169922 17.5151 0.476632 17.8121 0.936697 17.8121H17.0581C17.5182 17.8121 17.8153 17.5151 17.8153 17.0549V0.933523C17.8153 0.473458 17.5182 0.166748 17.0581 0.166748H0.936697C0.476632 0.166748 0.169922 0.473458 0.169922 0.933523V17.0549ZM1.71306 15.991V1.98784C1.71306 1.78656 1.78973 1.70989 1.99101 1.70989H15.9942C16.2051 1.70989 16.2721 1.78656 16.2721 1.98784V15.991C16.2721 16.2019 16.2051 16.269 15.9942 16.269H1.99101C1.78973 16.269 1.71306 16.2019 1.71306 15.991Z" fill="white" fill-opacity="0.85"/>
</g>
<defs>
<clipPath id="clip0_108_3613">
<rect width="18" height="17.6645" fill="white" transform="translate(0.169922 0.166748)"/>
</clipPath>
</defs>
</svg>
