<svg width="17" height="17" viewBox="0 0 17 17" fill="none" xmlns="http://www.w3.org/2000/svg">
<path d="M4.25443 10.9874H5.11733V11.7672C5.11733 12.8171 5.64214 13.3472 6.70184 13.3472H11.7682C12.8178 13.3472 13.3477 12.8171 13.3477 11.7672V6.60925C13.3477 5.55931 12.8178 5.02925 11.7682 5.02925H10.9003V4.24944C10.9003 3.1995 10.3704 2.66943 9.32082 2.66943H4.25443C3.19473 2.66943 2.66992 3.1995 2.66992 4.24944V9.40739C2.66992 10.4573 3.19473 10.9874 4.25443 10.9874ZM4.26452 10.1668C3.7599 10.1668 3.48236 9.89159 3.48236 9.36152V4.29531C3.48236 3.76524 3.7599 3.49002 4.26452 3.49002H9.30569C9.80526 3.49002 10.0878 3.76524 10.0878 4.29531V5.02925H6.70184C5.64214 5.02925 5.11733 5.55422 5.11733 6.60925V10.1668H4.26452ZM6.71193 12.5266C6.21236 12.5266 5.92977 12.2514 5.92977 11.7213V6.65512C5.92977 6.12506 6.21236 5.84983 6.71193 5.84983H11.7531C12.2527 5.84983 12.5353 6.12506 12.5353 6.65512V11.7213C12.5353 12.2514 12.2527 12.5266 11.7531 12.5266H6.71193Z" fill="#666666"/>
</svg>
