<svg width="13" height="21" viewBox="0 0 13 21" fill="none" xmlns="http://www.w3.org/2000/svg">
<g clip-path="url(#clip0_108_3630)">
<path d="M11.9141 4.89251V1.22063C11.9141 0.703058 11.4941 0.371027 10.9961 0.468683L5.97656 1.56243C5.35156 1.69915 5.00977 2.04095 5.00977 2.58782L5.0293 13.4472C5.07812 13.9257 4.85352 14.2382 4.42383 14.3261L2.87109 14.6483C0.917969 15.0585 0 16.0546 0 17.5292C0 19.0233 1.15234 20.0683 2.77344 20.0683C4.20898 20.0683 6.35742 19.0136 6.35742 16.1718V7.23626C6.35742 6.71868 6.45508 6.61126 6.91406 6.5136L11.377 5.53704C11.709 5.46868 11.9141 5.21477 11.9141 4.89251Z" fill="white" fill-opacity="0.85"/>
</g>
<defs>
<clipPath id="clip0_108_3630">
<rect width="12.2754" height="20.0684" fill="white"/>
</clipPath>
</defs>
</svg>
