<svg width="11" height="11" viewBox="0 0 11 11" fill="none" xmlns="http://www.w3.org/2000/svg">
<g clip-path="url(#clip0_167_2866)">
<path d="M0.166992 5.05854C0.166992 5.35306 0.41343 5.59349 0.701942 5.59349H4.59085V9.48237C4.59085 9.77091 4.83127 10.0174 5.1258 10.0174C5.42032 10.0174 5.66676 9.77091 5.66676 9.48237V5.59349H9.54963C9.83817 5.59349 10.0846 5.35306 10.0846 5.05854C10.0846 4.76401 9.83817 4.51757 9.54963 4.51757H5.66676V0.634682C5.66676 0.346169 5.42032 0.0997314 5.1258 0.0997314C4.83127 0.0997314 4.59085 0.346169 4.59085 0.634682V4.51757H0.701942C0.41343 4.51757 0.166992 4.76401 0.166992 5.05854Z" fill="#999999" fill-opacity="0.6"/>
</g>
<defs>
<clipPath id="clip0_167_2866">
<rect width="10.14" height="9.92359" fill="white" transform="translate(0.166992 0.0997314)"/>
</clipPath>
</defs>
</svg>
