<svg width="24" height="24" viewBox="0 0 24 24" fill="none" xmlns="http://www.w3.org/2000/svg">
<path fill-rule="evenodd" clip-rule="evenodd" d="M12 3.5C10.3449 3.5 8.72588 3.98319 7.34151 4.89026C5.95715 5.79734 4.86772 7.08884 4.20691 8.60626C3.5461 10.1237 3.34267 11.801 3.62158 13.4324C3.90049 15.0638 4.64961 16.5783 5.777 17.79C7.247 16.074 9.417 15 12 15C14.583 15 16.752 16.074 18.223 17.79C19.3504 16.5783 20.0995 15.0638 20.3784 13.4324C20.6573 11.801 20.4539 10.1237 19.7931 8.60626C19.1323 7.08884 18.0429 5.79734 16.6585 4.89026C15.2741 3.98319 13.6551 3.5 12 3.5ZM17.108 18.794C15.917 17.388 14.151 16.5 12 16.5C9.85 16.5 8.083 17.388 6.891 18.794C8.36266 19.9041 10.1566 20.5031 12 20.5C13.843 20.5029 15.6366 19.9039 17.108 18.794ZM2 12C2 6.477 6.47701 2 12 2C17.523 2 22 6.477 22 12C22 14.974 20.7 17.646 18.641 19.476C16.8126 21.1047 14.4486 22.0031 12 22C9.55142 22.0031 7.18739 21.1047 5.35901 19.476C4.30167 18.5388 3.45546 17.3877 2.87639 16.0988C2.29732 14.81 1.9986 13.4129 2 12ZM12 7.5C11.337 7.5 10.7011 7.76339 10.2322 8.23223C9.7634 8.70107 9.5 9.33696 9.5 10C9.5 10.663 9.7634 11.2989 10.2322 11.7678C10.7011 12.2366 11.337 12.5 12 12.5C12.663 12.5 13.2989 12.2366 13.7678 11.7678C14.2366 11.2989 14.5 10.663 14.5 10C14.5 9.33696 14.2366 8.70107 13.7678 8.23223C13.2989 7.76339 12.663 7.5 12 7.5ZM8 10C8 8.93913 8.42143 7.92172 9.17158 7.17157C9.92172 6.42143 10.9391 6 12 6C13.0609 6 14.0783 6.42143 14.8284 7.17157C15.5786 7.92172 16 8.93913 16 10C16 11.0609 15.5786 12.0783 14.8284 12.8284C14.0783 13.5786 13.0609 14 12 14C10.9391 14 9.92172 13.5786 9.17158 12.8284C8.42143 12.0783 8 11.0609 8 10Z" fill="black"/>
</svg>
