<svg width="19" height="13" viewBox="0 0 19 13" fill="none" xmlns="http://www.w3.org/2000/svg">
<g clip-path="url(#clip0_108_3618)">
<path d="M0.900391 6.77057C0.900391 9.05293 1.75883 11.1446 3.24407 12.6979C3.48934 12.9568 3.82317 12.9295 4.01394 12.7115C4.21151 12.5003 4.17064 12.1869 3.939 11.9485C2.6309 10.5859 1.92234 8.75999 1.92234 6.77057C1.92234 4.78118 2.6309 2.95529 3.939 1.59269C4.17064 1.34742 4.21151 1.04083 4.01394 0.822815C3.82317 0.611611 3.48934 0.584359 3.24407 0.843254C1.75883 2.39662 0.900391 4.48822 0.900391 6.77057ZM18.6483 6.77057C18.6483 4.48822 17.7899 2.39662 16.3046 0.843254C16.0593 0.584359 15.7255 0.611611 15.5348 0.822815C15.3372 1.04083 15.3781 1.34742 15.6097 1.59269C16.911 2.95529 17.6263 4.78118 17.6263 6.77057C17.6263 8.75999 16.911 10.5859 15.6097 11.9485C15.3781 12.1869 15.3372 12.5003 15.5348 12.7115C15.7255 12.9295 16.0593 12.9568 16.3046 12.6979C17.7899 11.1446 18.6483 9.05293 18.6483 6.77057Z" fill="white" fill-opacity="0.85"/>
<path d="M3.33936 6.7705C3.33936 8.38521 3.91846 9.89088 4.96085 11.015C5.19931 11.2807 5.54678 11.2875 5.75116 11.0491C5.94874 10.8243 5.89424 10.5313 5.66259 10.2792C4.81778 9.3322 4.3545 8.10587 4.3545 6.7705C4.3545 5.43515 4.81778 4.20881 5.66259 3.26181C5.89424 3.00972 5.94874 2.71676 5.75116 2.48512C5.54678 2.25348 5.19931 2.25348 4.96085 2.51918C3.91846 3.65015 3.33936 5.14901 3.33936 6.7705ZM16.2092 6.7705C16.2092 5.14901 15.6301 3.65015 14.5876 2.51918C14.3492 2.25348 14.0017 2.25348 13.7973 2.48512C13.593 2.71676 13.6542 3.00972 13.8791 3.26181C14.7307 4.20881 15.194 5.43515 15.194 6.7705C15.194 8.10587 14.7307 9.3322 13.8791 10.2792C13.6542 10.5313 13.593 10.8243 13.7973 11.0491C14.0017 11.2875 14.3492 11.2807 14.5876 11.015C15.6301 9.89088 16.2092 8.38521 16.2092 6.7705Z" fill="white" fill-opacity="0.85"/>
<path d="M5.77173 6.77061C5.77173 7.68355 6.08513 8.54201 6.63017 9.2165C6.855 9.50261 7.22972 9.50261 7.4341 9.27099C7.63849 9.03936 7.54993 8.76686 7.35235 8.48752C6.98444 8.02421 6.79369 7.42466 6.79369 6.77061C6.79369 6.11656 6.98444 5.51702 7.35235 5.04692C7.54993 4.7744 7.63849 4.50188 7.4341 4.27024C7.22972 4.0386 6.855 4.0386 6.63017 4.31793C6.08513 4.99242 5.77173 5.85086 5.77173 6.77061ZM13.777 6.77061C13.777 5.85086 13.4636 4.99242 12.9186 4.31793C12.6938 4.0386 12.319 4.0386 12.1146 4.27024C11.9102 4.50188 11.992 4.7744 12.1964 5.04692C12.5643 5.51702 12.7551 6.11656 12.7551 6.77061C12.7551 7.42466 12.5643 8.02421 12.1964 8.48752C11.992 8.76686 11.9102 9.03936 12.1146 9.27099C12.319 9.50261 12.6938 9.50261 12.9186 9.2165C13.4636 8.54201 13.777 7.68355 13.777 6.77061Z" fill="white" fill-opacity="0.85"/>
<path d="M8.53101 6.78412C8.53101 7.44497 9.11013 8.00364 9.78462 8.00364C10.4591 8.00364 11.011 7.44497 11.011 6.77048C11.011 6.08918 10.4659 5.53052 9.78462 5.53052C9.09645 5.53052 8.53101 6.10281 8.53101 6.78412Z" fill="white" fill-opacity="0.85"/>
</g>
<defs>
<clipPath id="clip0_108_3618">
<rect width="18" height="12.2329" fill="white" transform="translate(0.900391 0.650635)"/>
</clipPath>
</defs>
</svg>
