<svg width="19" height="18" viewBox="0 0 19 18" fill="none" xmlns="http://www.w3.org/2000/svg">
<g clip-path="url(#clip0_126_624)">
<path d="M8.98128 17.8012C13.8604 17.8012 17.821 13.8407 17.821 8.9615C17.821 4.08235 13.8604 0.121826 8.98128 0.121826C4.10212 0.121826 0.141602 4.08235 0.141602 8.9615C0.141602 13.8407 4.10212 17.8012 8.98128 17.8012ZM8.98128 16.3279C4.90809 16.3279 1.61488 13.0347 1.61488 8.9615C1.61488 4.88831 4.90809 1.59511 8.98128 1.59511C13.0545 1.59511 16.3477 4.88831 16.3477 8.9615C16.3477 13.0347 13.0545 16.3279 8.98128 16.3279Z" fill="white" fill-opacity="0.85"/>
<path d="M4.44893 9.89753H8.97276C9.31072 9.89753 9.57944 9.6376 9.57944 9.29088V3.44979C9.57944 3.1118 9.31072 2.85181 8.97276 2.85181C8.63477 2.85181 8.37478 3.1118 8.37478 3.44979V8.69292H4.44893C4.10228 8.69292 3.84229 8.95291 3.84229 9.29088C3.84229 9.6376 4.10228 9.89753 4.44893 9.89753Z" fill="white" fill-opacity="0.85"/>
</g>
<defs>
<clipPath id="clip0_126_624">
<rect width="18" height="17.688" fill="white" transform="translate(0.141602 0.121826)"/>
</clipPath>
</defs>
</svg>
