<svg width="21" height="20" viewBox="0 0 21 20" fill="none" xmlns="http://www.w3.org/2000/svg">
<g clip-path="url(#clip0_4_13)">
<path d="M9.96094 19.9219C15.459 19.9219 19.9219 15.459 19.9219 9.96094C19.9219 4.46289 15.459 0 9.96094 0C4.46289 0 0 4.46289 0 9.96094C0 15.459 4.46289 19.9219 9.96094 19.9219ZM9.96094 18.2617C5.37109 18.2617 1.66016 14.5508 1.66016 9.96094C1.66016 5.37109 5.37109 1.66016 9.96094 1.66016C14.5508 1.66016 18.2617 5.37109 18.2617 9.96094C18.2617 14.5508 14.5508 18.2617 9.96094 18.2617Z" fill="white" fill-opacity="0.85"/>
<path d="M4.85352 11.0156H9.95117C10.332 11.0156 10.6348 10.7227 10.6348 10.332V3.75C10.6348 3.36914 10.332 3.07617 9.95117 3.07617C9.57031 3.07617 9.27734 3.36914 9.27734 3.75V9.6582H4.85352C4.46289 9.6582 4.16992 9.95117 4.16992 10.332C4.16992 10.7227 4.46289 11.0156 4.85352 11.0156Z" fill="white" fill-opacity="0.85"/>
</g>
<defs>
<clipPath id="clip0_4_13">
<rect width="20.2832" height="19.9316" fill="white"/>
</clipPath>
</defs>
</svg>
