<svg width="18" height="18" viewBox="0 0 18 18" fill="none" xmlns="http://www.w3.org/2000/svg">
<g clip-path="url(#clip0_96_1418)">
<path d="M8.83968 17.8354C13.7188 17.8354 17.6794 13.8748 17.6794 8.99568C17.6794 4.11653 13.7188 0.156006 8.83968 0.156006C3.96052 0.156006 0 4.11653 0 8.99568C0 13.8748 3.96052 17.8354 8.83968 17.8354ZM8.83968 16.3621C4.76649 16.3621 1.47328 13.0689 1.47328 8.99568C1.47328 4.92249 4.76649 1.62929 8.83968 1.62929C12.9129 1.62929 16.2061 4.92249 16.2061 8.99568C16.2061 13.0689 12.9129 16.3621 8.83968 16.3621Z" fill="white" fill-opacity="0.85"/>
<path d="M4.30721 9.93171H8.83104C9.169 9.93171 9.43772 9.67178 9.43772 9.32506V3.48397C9.43772 3.14598 9.169 2.88599 8.83104 2.88599C8.49305 2.88599 8.23306 3.14598 8.23306 3.48397V8.7271H4.30721C3.96055 8.7271 3.70056 8.98709 3.70056 9.32506C3.70056 9.67178 3.96055 9.93171 4.30721 9.93171Z" fill="white" fill-opacity="0.85"/>
</g>
<defs>
<clipPath id="clip0_96_1418">
<rect width="18" height="17.688" fill="white" transform="translate(0 0.156006)"/>
</clipPath>
</defs>
</svg>
