<svg width="19" height="18" viewBox="0 0 19 18" fill="none" xmlns="http://www.w3.org/2000/svg">
<g clip-path="url(#clip0_127_691)">
<path d="M0.726315 11.0502H8.47777C8.80725 11.0502 9.06738 10.7901 9.06738 10.4606C9.06738 10.1398 8.79859 9.87964 8.47777 9.87964H0.726315C0.396835 9.87964 0.136719 10.1398 0.136719 10.4606C0.136719 10.7901 0.388164 11.0502 0.726315 11.0502Z" fill="white" fill-opacity="0.85"/>
<path d="M0.726315 7.96348H8.47777C8.80725 7.96348 9.06738 7.6947 9.06738 7.36522C9.06738 7.04441 8.79859 6.79297 8.47777 6.79297H0.726315C0.396835 6.79297 0.136719 7.04441 0.136719 7.36522C0.136719 7.6947 0.388164 7.96348 0.726315 7.96348Z" fill="white" fill-opacity="0.85"/>
<path d="M0.726315 4.87658H8.47777C8.79859 4.87658 9.06738 4.6078 9.06738 4.28698C9.06738 3.96617 8.79859 3.70605 8.47777 3.70605H0.726315C0.396835 3.70605 0.136719 3.96617 0.136719 4.28698C0.136719 4.6078 0.396835 4.87658 0.726315 4.87658Z" fill="white" fill-opacity="0.85"/>
<path d="M17.8158 4.46899V1.20887C17.8158 0.74933 17.443 0.454532 17.0008 0.541237L12.5442 1.51234C11.9892 1.63373 11.6858 1.9372 11.6858 2.42274L11.7031 12.0644C11.7465 12.4893 11.5471 12.7667 11.1656 12.8448L9.78689 13.1308C8.05282 13.495 7.23779 14.3794 7.23779 15.6887C7.23779 17.0152 8.26091 17.943 9.70024 17.943C10.9748 17.943 12.8823 17.0066 12.8823 14.4835V6.54992C12.8823 6.09038 12.969 5.99501 13.3765 5.9083L17.339 5.04125C17.6337 4.98055 17.8158 4.75511 17.8158 4.46899Z" fill="white" fill-opacity="0.85"/>
</g>
<defs>
<clipPath id="clip0_127_691">
<rect width="18" height="17.818" fill="white" transform="translate(0.136719 0.125244)"/>
</clipPath>
</defs>
</svg>
