<svg width="20" height="20" viewBox="0 0 20 20" fill="none" xmlns="http://www.w3.org/2000/svg">
<path fill-rule="evenodd" clip-rule="evenodd" d="M9.16667 3.75C7.73008 3.75 6.35233 4.32068 5.3365 5.33651C4.32068 6.35233 3.75 7.73008 3.75 9.16667C3.75 10.6033 4.32068 11.981 5.3365 12.9968C6.35233 14.0127 7.73008 14.5833 9.16667 14.5833C10.6033 14.5833 11.981 14.0127 12.9968 12.9968C14.0127 11.981 14.5833 10.6033 14.5833 9.16667C14.5833 7.73008 14.0127 6.35233 12.9968 5.33651C11.981 4.32068 10.6033 3.75 9.16667 3.75ZM2.5 9.16667C2.50001 8.09678 2.75751 7.04261 3.25076 6.09321C3.744 5.14381 4.4585 4.32707 5.33389 3.71197C6.20929 3.09688 7.21986 2.7015 8.28025 2.55925C9.34063 2.41699 10.4197 2.53204 11.4262 2.89466C12.4328 3.25728 13.3373 3.85683 14.0633 4.64266C14.7894 5.42849 15.3156 6.37752 15.5976 7.40957C15.8796 8.44163 15.909 9.52639 15.6835 10.5722C15.4579 11.6181 14.984 12.5943 14.3017 13.4183L17.3167 16.4333C17.3781 16.4906 17.4273 16.5596 17.4615 16.6362C17.4956 16.7129 17.514 16.7956 17.5155 16.8796C17.517 16.9635 17.5015 17.0468 17.4701 17.1247C17.4387 17.2025 17.3919 17.2732 17.3325 17.3325C17.2732 17.3919 17.2025 17.4387 17.1247 17.4701C17.0468 17.5015 16.9635 17.517 16.8796 17.5155C16.7956 17.514 16.7129 17.4956 16.6362 17.4615C16.5596 17.4273 16.4906 17.3781 16.4333 17.3167L13.4183 14.3017C12.4437 15.1086 11.2596 15.6216 10.0043 15.7805C8.74902 15.9395 7.4744 15.738 6.32939 15.1995C5.18439 14.661 4.21627 13.8077 3.53817 12.7395C2.86007 11.6712 2.49999 10.432 2.5 9.16667Z" fill="black"/>
</svg>
