<svg width="17" height="17" viewBox="0 0 17 17" fill="none" xmlns="http://www.w3.org/2000/svg">
<path d="M4.61328 8.9372C4.61328 10.8666 5.63641 11.5749 8.60139 13.2665C8.73711 13.3405 8.86761 13.3722 8.95113 13.3722C9.03465 13.3722 9.17037 13.3405 9.30087 13.2665C12.2711 11.5802 13.289 10.8666 13.289 8.9372V4.89338C13.289 4.33835 13.0541 4.16391 12.6104 3.97362C11.9944 3.7146 10.0056 2.99041 9.38961 2.77369C9.24867 2.72611 9.09729 2.6944 8.95113 2.6944C8.80497 2.6944 8.65359 2.73669 8.51787 2.77369C7.9019 2.95341 5.90785 3.71989 5.29189 3.97362C4.8534 4.15863 4.61328 4.33835 4.61328 4.89338V8.9372ZM9.06075 12.3943V3.56131C9.08685 3.56659 9.11817 3.57716 9.15993 3.59302C9.94815 3.91018 11.4776 4.4705 12.2867 4.75066C12.4277 4.80352 12.459 4.87753 12.459 5.05725V8.74161C12.459 10.375 11.6864 10.8032 9.27477 12.2885C9.19647 12.3414 9.12339 12.3784 9.06075 12.3943Z" fill="#666666"/>
</svg>
