<svg width="23" height="15" viewBox="0 0 23 15" fill="none" xmlns="http://www.w3.org/2000/svg">
<g clip-path="url(#clip0_133_792)">
<path d="M8.83657 2.06062L9.23812 2.38977C9.56728 2.67283 9.83719 2.77816 10.2848 2.77816H14.3075C14.1327 3.10778 14.0034 3.46401 13.925 3.838H10.0083C9.35663 3.838 9.00772 3.71293 8.57988 3.35745L8.17832 3.02172C7.84256 2.73866 7.57926 2.62675 7.14481 2.62675H5.75579C5.12384 2.62675 4.78152 2.96248 4.78152 3.61419V5.25332H13.8725C13.9133 5.60069 14.0004 5.93396 14.1278 6.24734H4.78152V11.5268C4.78152 12.2115 5.14358 12.5604 5.80187 12.5604H16.5847C17.2364 12.5604 17.6116 12.2115 17.6116 11.5334V8.92561C17.7648 8.94415 17.9209 8.95291 18.079 8.95291C18.2801 8.95291 18.4785 8.93829 18.6714 8.90505V11.5795C18.6714 12.9356 17.9802 13.6202 16.8019 13.6202H5.7887C4.41288 13.6202 3.72168 12.9422 3.72168 11.5795V3.55494C3.72168 2.23178 4.38655 1.57349 5.53856 1.57349H7.41465C8.06636 1.57349 8.40212 1.69198 8.83657 2.06062Z" fill="white" fill-opacity="0.85"/>
<path d="M21.4231 4.7069C21.4231 6.53695 19.8893 8.05101 18.079 8.05101C16.2423 8.05101 14.7349 6.55011 14.7349 4.7069C14.7349 2.87686 16.2423 1.36279 18.079 1.36279C19.909 1.36279 21.4231 2.87686 21.4231 4.7069ZM16.1436 6.29996V6.33288C16.3608 6.7871 17.1179 7.2808 18.079 7.2808C19.0401 7.2808 19.7905 6.79368 20.0078 6.33288V6.30655C19.7971 5.89183 19.1257 5.43761 18.079 5.43761C17.0323 5.43761 16.3608 5.89183 16.1436 6.29996ZM17.006 3.71947C17.006 4.40409 17.4668 4.90439 18.0724 4.90439C18.678 4.90439 19.152 4.40409 19.152 3.71947C19.152 3.10726 18.678 2.58721 18.0724 2.58721C17.4733 2.58721 17.006 3.10726 17.006 3.71947Z" fill="white" fill-opacity="0.85"/>
</g>
<defs>
<clipPath id="clip0_133_792">
<rect width="22" height="14.3441" fill="white" transform="translate(0.318359 0.467651)"/>
</clipPath>
</defs>
</svg>
