<svg width="100" height="28" viewBox="0 0 100 28" fill="none" xmlns="http://www.w3.org/2000/svg">
<mask id="path-1-inside-1_114_944" fill="white">
<path d="M0 0H100V28H0V0Z"/>
</mask>
<path d="M100 28V27H0V28V29H100V28Z" fill="white" fill-opacity="0.05" mask="url(#path-1-inside-1_114_944)"/>
<mask id="path-3-inside-2_114_944" fill="white">
<path d="M0 4H100V23H0V4Z"/>
</mask>
<path d="M0 23H1V4H0H-1V23H0Z" fill="white" fill-opacity="0.1" mask="url(#path-3-inside-2_114_944)"/>
<path d="M11.5933 17.188C11.0096 17.188 10.5011 17.0967 10.0679 16.9141C9.6346 16.7279 9.29264 16.4701 9.04199 16.1406C8.79134 15.8112 8.64811 15.4299 8.6123 14.9966L8.60693 14.9268H9.79395L9.79932 14.9858C9.82438 15.2186 9.91569 15.4209 10.0732 15.5928C10.2344 15.7646 10.4492 15.8989 10.7178 15.9956C10.9899 16.0923 11.2996 16.1406 11.647 16.1406C11.9728 16.1406 12.2629 16.0887 12.5171 15.9849C12.7713 15.881 12.9701 15.7378 13.1133 15.5552C13.2601 15.3726 13.3335 15.1631 13.3335 14.9268V14.9214C13.3335 14.6242 13.2207 14.3771 12.9951 14.1802C12.7695 13.9832 12.4007 13.8293 11.8887 13.7183L11.04 13.541C10.2559 13.3727 9.68473 13.106 9.32666 12.7407C8.96859 12.3719 8.78955 11.901 8.78955 11.3281V11.3228C8.79313 10.8752 8.91309 10.4813 9.14941 10.1411C9.38932 9.80094 9.72054 9.53597 10.1431 9.34619C10.5656 9.15641 11.0508 9.06152 11.5986 9.06152C12.1465 9.06152 12.6245 9.15641 13.0327 9.34619C13.4445 9.53239 13.7686 9.78662 14.0049 10.1089C14.2448 10.4312 14.3791 10.7946 14.4077 11.1992L14.4131 11.269H13.2368L13.2261 11.1992C13.1938 10.988 13.1061 10.8 12.9629 10.6353C12.8232 10.4705 12.6353 10.3416 12.3989 10.2485C12.1662 10.1519 11.894 10.1053 11.5825 10.1089C11.2817 10.1089 11.0132 10.1554 10.7769 10.2485C10.5405 10.3381 10.3525 10.4688 10.2129 10.6406C10.0768 10.8125 10.0088 11.0202 10.0088 11.2637V11.269C10.0088 11.5555 10.118 11.7954 10.3364 11.9888C10.5584 12.1785 10.9183 12.3271 11.416 12.4346L12.2646 12.6226C12.8053 12.7371 13.244 12.8893 13.5806 13.0791C13.9172 13.2689 14.1624 13.5034 14.3164 13.7827C14.474 14.0584 14.5527 14.3879 14.5527 14.771V14.7764C14.5527 15.2705 14.431 15.6984 14.1875 16.0601C13.9476 16.4181 13.6056 16.6956 13.1616 16.8926C12.7176 17.0895 12.1948 17.188 11.5933 17.188ZM16.019 17V11.167H17.1899V17H16.019ZM16.6099 10.125C16.4093 10.125 16.2375 10.0534 16.0942 9.91016C15.951 9.76693 15.8794 9.59505 15.8794 9.39453C15.8794 9.19401 15.951 9.02393 16.0942 8.88428C16.2375 8.74105 16.4093 8.66943 16.6099 8.66943C16.8104 8.66943 16.9823 8.74105 17.1255 8.88428C17.2687 9.02393 17.3403 9.19401 17.3403 9.39453C17.3403 9.59505 17.2687 9.76693 17.1255 9.91016C16.9823 10.0534 16.8104 10.125 16.6099 10.125ZM18.7476 17V16.2427L21.9702 12.1768V12.0854H18.769V11.167H23.3452V11.9727L20.1978 15.9849V16.0762H23.3828V17H18.7476ZM27.2285 17.1128C26.6592 17.1128 26.1704 16.991 25.7622 16.7476C25.354 16.5005 25.0389 16.1514 24.8169 15.7002C24.5985 15.249 24.4893 14.7155 24.4893 14.0996V14.0942C24.4893 13.4855 24.5985 12.9538 24.8169 12.499C25.0389 12.0443 25.3504 11.6898 25.7515 11.4355C26.1561 11.1813 26.6287 11.0542 27.1694 11.0542C27.7137 11.0542 28.181 11.1759 28.5713 11.4194C28.9652 11.6629 29.2677 12.0049 29.479 12.4453C29.6903 12.8822 29.7959 13.3942 29.7959 13.9814V14.3896H25.0801V13.5571H29.2158L28.6572 14.3306V13.8633C28.6572 13.4479 28.5928 13.1042 28.4639 12.832C28.3385 12.5563 28.1649 12.3504 27.9429 12.2144C27.7209 12.0783 27.4648 12.0103 27.1748 12.0103C26.8848 12.0103 26.6252 12.0819 26.396 12.2251C26.1704 12.3647 25.9914 12.5724 25.8589 12.8481C25.73 13.1239 25.6655 13.4622 25.6655 13.8633V14.3306C25.6655 14.7137 25.73 15.0413 25.8589 15.3135C25.9878 15.5856 26.1704 15.7933 26.4067 15.9365C26.6466 16.0798 26.9295 16.1514 27.2554 16.1514C27.506 16.1514 27.7209 16.1174 27.8999 16.0493C28.0825 15.9777 28.2311 15.89 28.3457 15.7861C28.4639 15.6823 28.5444 15.5802 28.5874 15.48L28.6089 15.437H29.7368L29.7261 15.4854C29.6759 15.6787 29.5882 15.8721 29.4629 16.0654C29.3376 16.2552 29.1711 16.4289 28.9634 16.5864C28.7593 16.744 28.5122 16.8711 28.2222 16.9678C27.9357 17.0645 27.6045 17.1128 27.2285 17.1128Z" fill="white"/>
</svg>
