<svg width="17" height="17" viewBox="0 0 17 17" fill="none" xmlns="http://www.w3.org/2000/svg">
<path d="M13.4844 3.34363C14.1572 3.41218 14.6826 3.98083 14.6826 4.67175V11.3456L14.6748 11.4813C14.6111 12.1094 14.1124 12.6087 13.4844 12.6727L13.3477 12.6796H2.66992L2.5332 12.6727C1.90496 12.6089 1.40547 12.1096 1.3418 11.4813L1.33496 11.3456V4.67175C1.33496 3.98068 1.86016 3.41198 2.5332 3.34363L2.66992 3.33679H13.3477L13.4844 3.34363ZM2.66992 4.07117C2.33821 4.07117 2.06934 4.34004 2.06934 4.67175V11.3456C2.06958 11.6771 2.33836 11.9462 2.66992 11.9462H5.86133V4.07117H2.66992ZM6.5957 11.9462H13.3477C13.6791 11.9461 13.948 11.677 13.9482 11.3456V4.67175C13.9482 4.3401 13.6793 4.07127 13.3477 4.07117H6.5957V11.9462ZM4.67188 8.4198C4.87443 8.41999 5.03906 8.58439 5.03906 8.78699C5.03903 8.98956 4.87441 9.15399 4.67188 9.15417H3.33691C3.13422 9.15417 2.96976 8.98968 2.96973 8.78699C2.96973 8.58427 3.1342 8.4198 3.33691 8.4198H4.67188ZM4.67188 6.86218C4.87431 6.86237 5.03887 7.02694 5.03906 7.22937C5.03906 7.43197 4.87443 7.59637 4.67188 7.59656H3.33691C3.1342 7.59656 2.96973 7.43209 2.96973 7.22937C2.96992 7.02682 3.13432 6.86218 3.33691 6.86218H4.67188ZM4.67188 5.30554C4.87443 5.30573 5.03906 5.47013 5.03906 5.67273C5.03898 5.87526 4.87438 6.03973 4.67188 6.03992H3.33691C3.13425 6.03992 2.96981 5.87537 2.96973 5.67273C2.96973 5.47001 3.1342 5.30554 3.33691 5.30554H4.67188Z" fill="#666666"/>
</svg>
