<svg width="16" height="11" viewBox="0 0 16 11" fill="none" xmlns="http://www.w3.org/2000/svg">
<g clip-path="url(#clip0_167_2861)">
<path d="M1.97709 10.7606H12.8699C14.1922 10.7606 14.847 10.1058 14.847 8.8087V5.08121C14.847 4.51453 14.7715 4.23119 14.4881 3.88489L12.3159 1.19631C11.5792 0.289617 11.2518 0.0125732 10.131 0.0125732H4.71603C3.59527 0.0125732 3.27415 0.289617 2.53747 1.19631L0.358897 3.88489C0.0818537 4.23119 0 4.51453 0 5.08121V8.8087C0 10.1121 0.661126 10.7606 1.97709 10.7606ZM1.32855 4.70342C1.12077 4.70342 1.07669 4.52083 1.18373 4.3886L3.51971 1.44187C3.82824 1.05149 4.18084 0.894076 4.64048 0.894076H10.2065C10.6662 0.894076 11.0187 1.05149 11.3273 1.44187L13.6696 4.3886C13.7703 4.52083 13.7325 4.70342 13.5248 4.70342H9.36908C9.04167 4.70342 8.8906 4.94898 8.8906 5.21344V5.23232C8.8906 5.96271 8.31761 6.73716 7.42352 6.73716C6.5357 6.73716 5.96273 5.96271 5.96273 5.23232V5.21344C5.96273 4.94898 5.80532 4.70342 5.4779 4.70342H1.32855ZM1.98968 9.74688C1.36003 9.74688 1.01373 9.41316 1.01373 8.75834V5.6227H5.00567C5.15679 6.80016 6.14533 7.66903 7.42352 7.66903C8.70169 7.66903 9.69023 6.79384 9.84136 5.6227H13.8333V8.75834C13.8333 9.41316 13.4807 9.74688 12.8573 9.74688H1.98968Z" fill="#808080"/>
</g>
<defs>
<clipPath id="clip0_167_2861">
<rect width="15.08" height="10.7607" fill="white"/>
</clipPath>
</defs>
</svg>
